<svg data-name="Layer 1" xmlns="http://www.w3.org/2000/svg" width="16" height="16" viewBox="0 0 16 16"><path d="M8 0a8 8 0 1 0 8 8 8 8 0 0 0-8-8zm4.21 12.21a3.48 3.48 0 0 1-2.46.95 3.48 3.48 0 0 1-2.46-.95A1 1 0 0 1 8.7 10.8a1.78 1.78 0 0 0 2.09 0 1.7 1.7 0 0 0 0-2.09 1.78 1.78 0 0 0-2.09 0 3.48 3.48 0 0 1-2.46.95 3.47 3.47 0 0 1-2.46-.95 3.66 3.66 0 0 1 0-4.91 3.66 3.66 0 0 1 4.91 0 1 1 0 0 1-1.4 1.41 1.78 1.78 0 0 0-2.09 0 1.7 1.7 0 0 0 0 2.09 1.78 1.78 0 0 0 2.09 0 3.66 3.66 0 0 1 4.91 0 3.66 3.66 0 0 1 .01 4.91z"/></svg>