<svg xmlns="http://www.w3.org/2000/svg" width="48" height="48" viewBox="0 0 48 48"><title>settings</title><g fill="none" stroke-linecap="round" stroke-linejoin="round" stroke-width="2"><circle cx="23" cy="24" r="3"/><path d="M30.4 27a1.65 1.65 0 0 0 .33 1.82l.06.06a2 2 0 0 1 0 2.83 2 2 0 0 1-2.83 0l-.06-.06a1.66 1.66 0 0 0-2.82 1.18V33a2 2 0 0 1-4 0v-.09a1.73 1.73 0 0 0-2.9-1.18l-.06.06a2 2 0 0 1-2.83 0 2 2 0 0 1 0-2.83l.06-.06a1.66 1.66 0 0 0-1.18-2.82H14a2 2 0 0 1 0-4h.09a1.73 1.73 0 0 0 1.18-2.9l-.06-.06a2 2 0 0 1 0-2.83 2 2 0 0 1 2.83 0l.06.06a1.65 1.65 0 0 0 1.82.33H20a1.65 1.65 0 0 0 1-1.51V15a2 2 0 0 1 4 0v.09a1.66 1.66 0 0 0 2.82 1.18l.06-.06a2 2 0 0 1 2.83 0 2 2 0 0 1 0 2.83l-.06.06a1.65 1.65 0 0 0-.33 1.82V21a1.65 1.65 0 0 0 1.51 1H32a2 2 0 0 1 0 4h-.09a1.65 1.65 0 0 0-1.51 1z"/></g></svg>