<?xml version="1.0" standalone="no"?>
<!DOCTYPE svg PUBLIC "-//W3C//DTD SVG 20010904//EN"
 "http://www.w3.org/TR/2001/REC-SVG-20010904/DTD/svg10.dtd">
<svg version="1.0" xmlns="http://www.w3.org/2000/svg"
 width="640.000000pt" height="640.000000pt" viewBox="0 0 640.000000 640.000000"
 preserveAspectRatio="xMidYMid meet">
<metadata>
Created by potrace 1.11, written by Peter Selinger 2001-2013
</metadata>
<g transform="translate(0.000000,640.000000) scale(0.100000,-0.100000)"
fill="#000000" stroke="none">
<path d="M3009 5596 c-2 -2 -34 -6 -70 -10 -412 -38 -840 -210 -1199 -479
-128 -96 -358 -328 -456 -459 -198 -266 -338 -560 -414 -869 -33 -136 -40
-176 -57 -319 -10 -83 -10 -434 -1 -521 81 -716 466 -1344 1068 -1744 273
-181 629 -320 935 -366 143 -21 191 -24 385 -24 181 0 292 6 363 21 12 2 36 6
52 8 169 24 442 113 639 210 742 364 1241 1072 1334 1895 15 133 8 507 -12
606 -2 11 -7 40 -10 65 -9 63 -16 102 -21 111 -3 4 -7 24 -11 45 -3 22 -27
104 -54 184 -66 201 -136 350 -241 518 -242 386 -578 689 -986 889 -144 70
-402 164 -487 177 -21 4 -42 8 -46 11 -9 5 -84 19 -175 31 -27 3 -59 8 -70 11
-24 6 -460 14 -466 9z m-179 -861 c264 -31 563 -200 640 -361 33 -70 33 -180
0 -249 -50 -103 -147 -167 -260 -170 -84 -3 -128 13 -215 78 -83 62 -102 72
-175 91 -111 27 -269 17 -367 -25 -64 -27 -123 -86 -153 -154 -37 -82 -47
-136 -44 -241 2 -96 31 -194 75 -258 36 -53 113 -98 209 -124 8 -2 62 -5 120
-7 150 -5 254 26 330 97 200 188 450 283 745 282 120 -1 216 -15 330 -51 412
-129 659 -469 679 -933 4 -87 -15 -266 -33 -314 -5 -11 -9 -25 -10 -31 -5 -40
-64 -180 -104 -250 -197 -341 -646 -522 -1087 -440 -253 48 -508 201 -580 351
-34 68 -34 179 -1 247 51 105 148 169 261 173 82 2 126 -15 216 -83 97 -72
163 -95 294 -99 291 -10 436 118 445 389 4 148 -37 270 -116 341 -69 62 -147
88 -279 92 -152 5 -267 -28 -340 -98 -144 -136 -342 -236 -519 -263 -332 -49
-592 3 -832 166 -217 147 -366 414 -397 709 -12 115 -2 313 19 367 5 12 7 23
4 23 -8 0 53 167 83 228 147 296 445 492 787 519 39 3 71 7 73 8 5 4 137 -3
202 -10z"/>
</g>
</svg>
