<svg xmlns="http://www.w3.org/2000/svg" width="1280" height="960" viewBox="0 0 1280 960">
  <g fill="none" fill-rule="evenodd">
    <rect width="1280" height="960" fill="#17171C"/>
    <g stroke="#FFFFFF" stroke-width="2" transform="translate(72 872)">
      <path d="M4,0 L12,0 C14.209139,-4.05812251e-16 16,1.790861 16,4 L16,32 C16,34.209139 14.209139,36 12,36 L4,36 L0,36 L0,0 L4,0 Z" transform="translate(0 12)"/>
      <path d="M4,0 L12,0 C14.209139,-4.05812251e-16 16,1.790861 16,4 L16,32 C16,34.209139 14.209139,36 12,36 L4,36 L0,36 L0,0 L4,0 Z" transform="matrix(-1 0 0 1 320 12)"/>
      <g transform="translate(33 11)">
        <path d="M18,0 L18,56.0089279"/>
        <rect width="36" height="56" rx="4"/>
        <rect width="8" height="16" x="5" y="6" rx="2"/>
        <rect width="8" height="16" x="23" y="6" rx="2"/>
      </g>
      <g transform="translate(251 11)">
        <path d="M18,0 L18,56.0089279"/>
        <rect width="36" height="56" rx="4"/>
        <rect width="8" height="16" x="5" y="6" rx="2"/>
        <rect width="8" height="16" x="23" y="6" rx="2"/>
      </g>
      <path d="M320,32 L320,72 L0,72 L0,32 L0,4 C-2.705415e-16,1.790861 1.790861,4.05812251e-16 4,0 L316,0 C318.209139,-4.05812251e-16 320,1.790861 320,4 L320,32 Z"/>
      <g transform="translate(142 11)">
        <path d="M18,0 L18,56.0089279"/>
        <rect width="36" height="56" rx="4"/>
        <rect width="8" height="16" x="5" y="6" rx="2"/>
        <rect width="8" height="16" x="23" y="6" rx="2"/>
      </g>
      <g transform="translate(190 11)">
        <rect width="48" height="24" rx="4"/>
        <path d="M0,9 L48.0234318,9"/>
      </g>
      <g transform="translate(81 11)">
        <rect width="48" height="24" rx="4"/>
        <path d="M0,9 L48.0234318,9"/>
      </g>
      <g transform="translate(328)">
        <path d="M4,0 L12,0 C14.209139,-4.05812251e-16 16,1.790861 16,4 L16,32 C16,34.209139 14.209139,36 12,36 L4,36 L0,36 L0,0 L4,0 Z" transform="translate(0 12)"/>
        <path d="M4,0 L12,0 C14.209139,-4.05812251e-16 16,1.790861 16,4 L16,32 C16,34.209139 14.209139,36 12,36 L4,36 L0,36 L0,0 L4,0 Z" transform="matrix(-1 0 0 1 320 12)"/>
        <g transform="translate(33 11)">
          <path d="M18,0 L18,56.0089279"/>
          <rect width="36" height="56" rx="4"/>
          <rect width="8" height="16" x="5" y="6" rx="2"/>
          <rect width="8" height="16" x="23" y="6" rx="2"/>
        </g>
        <g transform="translate(251 11)">
          <path d="M18,0 L18,56.0089279"/>
          <rect width="36" height="56" rx="4"/>
          <rect width="8" height="16" x="5" y="6" rx="2"/>
          <rect width="8" height="16" x="23" y="6" rx="2"/>
        </g>
        <path d="M320,32 L320,72 L0,72 L0,32 L0,4 C-2.705415e-16,1.790861 1.790861,4.05812251e-16 4,0 L316,0 C318.209139,-4.05812251e-16 320,1.790861 320,4 L320,32 Z"/>
        <g transform="translate(142 11)">
          <path d="M18,0 L18,56.0089279"/>
          <rect width="36" height="56" rx="4"/>
          <rect width="8" height="16" x="5" y="6" rx="2"/>
          <rect width="8" height="16" x="23" y="6" rx="2"/>
        </g>
        <g transform="translate(190 11)">
          <rect width="48" height="24" rx="4"/>
          <path d="M0,9 L48.0234318,9"/>
        </g>
        <g transform="translate(81 11)">
          <rect width="48" height="24" rx="4"/>
          <path d="M0,9 L48.0234318,9"/>
        </g>
      </g>
      <g transform="translate(656)">
        <path d="M4,0 L12,0 C14.209139,-4.05812251e-16 16,1.790861 16,4 L16,32 C16,34.209139 14.209139,36 12,36 L4,36 L0,36 L0,0 L4,0 Z" transform="translate(0 12)"/>
        <path d="M4,0 L12,0 C14.209139,-4.05812251e-16 16,1.790861 16,4 L16,32 C16,34.209139 14.209139,36 12,36 L4,36 L0,36 L0,0 L4,0 Z" transform="matrix(-1 0 0 1 320 12)"/>
        <g transform="translate(33 11)">
          <path d="M18,0 L18,56.0089279"/>
          <rect width="36" height="56" rx="4"/>
          <rect width="8" height="16" x="5" y="6" rx="2"/>
          <rect width="8" height="16" x="23" y="6" rx="2"/>
        </g>
        <g transform="translate(251 11)">
          <path d="M18,0 L18,56.0089279"/>
          <rect width="36" height="56" rx="4"/>
          <rect width="8" height="16" x="5" y="6" rx="2"/>
          <rect width="8" height="16" x="23" y="6" rx="2"/>
        </g>
        <path d="M320,32 L320,72 L0,72 L0,32 L0,4 C-2.705415e-16,1.790861 1.790861,4.05812251e-16 4,0 L316,0 C318.209139,-4.05812251e-16 320,1.790861 320,4 L320,32 Z"/>
        <g transform="translate(142 11)">
          <path d="M18,0 L18,56.0089279"/>
          <rect width="36" height="56" rx="4"/>
          <rect width="8" height="16" x="5" y="6" rx="2"/>
          <rect width="8" height="16" x="23" y="6" rx="2"/>
        </g>
        <g transform="translate(190 11)">
          <rect width="48" height="24" rx="4"/>
          <path d="M0,9 L48.0234318,9"/>
        </g>
        <g transform="translate(81 11)">
          <rect width="48" height="24" rx="4"/>
          <path d="M0,9 L48.0234318,9"/>
        </g>
      </g>
    </g>
    <polygon fill="#7F19E7" fill-rule="nonzero" points="1080 476 1080 484 360 484 360 476"/>
    <polygon fill="#0054FF" fill-rule="nonzero" points="484 252 484 600 476 600 476 252"/>
    <polygon fill="#0054FF" fill-rule="nonzero" points="1080 208 1080 216 520 216 520 208"/>
    <polygon fill="#0054FF" fill-rule="nonzero" points="440 636 440 644 260 644 260 636"/>
    <polygon fill="#0054FF" fill-rule="nonzero" points="385 796 385 804 260 804 260 796"/>
    <path fill="#0054FF" fill-rule="nonzero" d="M440,644 L440,636 C459.882251,636 476,619.882251 476,600 L484,600 C484,624.300529 464.300529,644 440,644 Z"/>
    <path fill="#0054FF" fill-rule="nonzero" d="M520,208 L520,216 C500.117749,216 484,232.117749 484,252 L476,252 C476,227.699471 495.699471,208 520,208 Z"/>
    <polygon fill="#7F19E7" fill-rule="nonzero" points="920 796 920 804 360 804 360 796"/>
    <polygon fill="#33CCCC" fill-rule="nonzero" points="1080 636 1080 644 520 644 520 636"/>
    <polygon fill="#33CCCC" fill-rule="nonzero" points="360 476 360 484 44 484 44 476"/>
    <polygon fill="#7F19E7" fill-rule="nonzero" points="324 520 324 760 316 760 316 520"/>
    <polygon fill="#7F19E7" fill-rule="nonzero" points="964 520 964 760 956 760 956 520"/>
    <polygon fill="#7F19E7" fill-rule="nonzero" points="1124 520 1124 680 1116 680 1116 520"/>
    <path fill="#7F19E7" fill-rule="nonzero" d="M360,476 L360,484 C340.117749,484 324,500.117749 324,520 L316,520 C316,495.699471 335.699471,476 360,476 Z"/>
    <path fill="#7F19E7" fill-rule="nonzero" d="M316,760 L324,760 C324,779.882251 340.117749,796 360,796 L360,804 C335.699471,804 316,784.300529 316,760 Z"/>
    <polygon fill="#0054FF" fill-rule="nonzero" points="224 680 224 760 216 760 216 680"/>
    <polygon fill="#0054FF" fill-rule="nonzero" points="1124 252 1124 520 1116 520 1116 252"/>
    <path fill="#0054FF" fill-rule="nonzero" d="M260,636 L260,644 C240.117749,644 224,660.117749 224,680 L216,680 C216,655.699471 235.699471,636 260,636 Z"/>
    <path fill="#0054FF" fill-rule="nonzero" d="M216,760 L224,760 C224,779.882251 240.117749,796 260,796 L260,804 C235.699471,804 216,784.300529 216,760 Z"/>
    <g stroke="#FFFFFF" transform="translate(50 134)">
      <polygon stroke-width="2" points="84.079 280 92.079 280 92.079 232 84.079 232"/>
      <polygon stroke-width="2" points="82.079 232 94.079 232 94.079 224 82.079 224"/>
      <polygon stroke-width="2" points="82.079 284 94.079 284 94.079 280 82.079 280"/>
      <polygon stroke-width="2" points="105.079 280 113.079 280 113.079 232 105.079 232"/>
      <polygon stroke-width="2" points="103.079 232 115.079 232 115.079 224 103.079 224"/>
      <polygon stroke-width="2" points="103.079 284 115.079 284 115.079 280 103.079 280"/>
      <polygon stroke-width="2" points="126.079 280 134.079 280 134.079 232 126.079 232"/>
      <polygon stroke-width="2" points="124.079 232 136.079 232 136.079 224 124.079 224"/>
      <polygon stroke-width="2" points="124.079 284 136.079 284 136.079 280 124.079 280"/>
      <polygon stroke-width="2" points="147.079 280 155.079 280 155.079 232 147.079 232"/>
      <polygon stroke-width="2" points="145.079 232 157.079 232 157.079 224 145.079 224"/>
      <polygon stroke-width="2" points="145.079 284 157.079 284 157.079 280 145.079 280"/>
      <polygon stroke-width="2" points="168.079 280 176.079 280 176.079 232 168.079 232"/>
      <polygon stroke-width="2" points="166.079 232 178.079 232 178.079 224 166.079 224"/>
      <polygon stroke-width="2" points="166.079 284 178.079 284 178.079 280 166.079 280"/>
      <polygon stroke-width="2" points="80.079 292 180.079 292 180.079 284 80.079 284"/>
      <polygon stroke-width="2" points="80.079 324 180.079 324 180.079 292 80.079 292"/>
      <polygon stroke-width="2" points="180.079 324 260.079 324 260.079 292 180.079 292"/>
      <polygon stroke-width="2" points=".079 324 80.079 324 80.079 292 .079 292"/>
      <polygon stroke-width="2" points="187.079 288 195.079 288 195.079 240 187.079 240"/>
      <polygon stroke-width="2" points="185.079 240 197.079 240 197.079 232 185.079 232"/>
      <polygon stroke-width="2" points="185.079 292 197.079 292 197.079 288 185.079 288"/>
      <polygon stroke-width="2" points="208.079 288 216.079 288 216.079 240 208.079 240"/>
      <polygon stroke-width="2" points="206.079 240 218.079 240 218.079 232 206.079 232"/>
      <polygon stroke-width="2" points="206.079 292 218.079 292 218.079 288 206.079 288"/>
      <polygon stroke-width="2" points="229.079 288 237.079 288 237.079 240 229.079 240"/>
      <polygon stroke-width="2" points="227.079 240 239.079 240 239.079 232 227.079 232"/>
      <polygon stroke-width="2" points="227.079 292 239.079 292 239.079 288 227.079 288"/>
      <polygon stroke-width="2" points="250.079 288 258.079 288 258.079 240 250.079 240"/>
      <polygon stroke-width="2" points="248.079 240 260.079 240 260.079 232 248.079 232"/>
      <polygon stroke-width="2" points="248.079 292 260.079 292 260.079 288 248.079 288"/>
      <polygon stroke-width="2" points="2.079 288 10.079 288 10.079 240 2.079 240"/>
      <polygon stroke-width="2" points=".079 240 12.079 240 12.079 232 .079 232"/>
      <polygon stroke-width="2" points=".079 292 12.079 292 12.079 288 .079 288"/>
      <polygon stroke-width="2" points="23.079 288 31.079 288 31.079 240 23.079 240"/>
      <polygon stroke-width="2" points="21.079 240 33.079 240 33.079 232 21.079 232"/>
      <polygon stroke-width="2" points="21.079 292 33.079 292 33.079 288 21.079 288"/>
      <polygon stroke-width="2" points="44.079 288 52.079 288 52.079 240 44.079 240"/>
      <polygon stroke-width="2" points="42.079 240 54.079 240 54.079 232 42.079 232"/>
      <polygon stroke-width="2" points="42.079 292 54.079 292 54.079 288 42.079 288"/>
      <polygon stroke-width="2" points="65.079 288 73.079 288 73.079 240 65.079 240"/>
      <polygon stroke-width="2" points="63.079 240 75.079 240 75.079 232 63.079 232"/>
      <polygon stroke-width="2" points="63.079 292 75.079 292 75.079 288 63.079 288"/>
      <polygon stroke-width="2" points="178.079 232 260.079 232 260.079 224 178.079 224"/>
      <polygon stroke-width="2" points=".079 232 82.079 232 82.079 224 .079 224"/>
      <polygon stroke-width="2" points="156.57 200 177.903 216 178.079 216 178.079 224 260.079 224 260.079 200"/>
      <polygon stroke-width="2" points="81.903 216 100.653 201.937 103.237 200 .079 200 .079 224 82.079 224 82.079 216"/>
      <polygon stroke-width="2" points="177.903 216 161.903 216 131.903 216 131.237 216 129.903 216 97.903 216 82.079 216 82.079 224 178.079 224 178.079 216"/>
      <polygon stroke-width="2" points="92.079 324 108.079 324 108.079 300 92.079 300"/>
      <polygon stroke-width="2" points="96.079 320 104.079 320 104.079 312 96.079 312"/>
      <polygon stroke-width="2" points="96.079 308 104.079 308 104.079 304 96.079 304"/>
      <polygon stroke-width="2" points="108.079 324 124.079 324 124.079 300 108.079 300"/>
      <polygon stroke-width="2" points="112.079 320 120.079 320 120.079 312 112.079 312"/>
      <polygon stroke-width="2" points="112.079 308 120.079 308 120.079 304 112.079 304"/>
      <path stroke-width="2" d="M199.079,309.7139 C199.079,306.5589 196.392,303.9999 193.079,303.9999 C189.766,303.9999 187.079,306.5589 187.079,309.7139 L187.079,323.9999 L199.079,323.9999 L199.079,309.7139 Z"/>
      <path stroke-width="2" d="M235.079,309.7139 C235.079,306.5589 232.392,303.9999 229.079,303.9999 C225.766,303.9999 223.079,306.5589 223.079,309.7139 L223.079,323.9999 L235.079,323.9999 L235.079,309.7139 Z"/>
      <path stroke-width="2" d="M253.079,309.7139 C253.079,306.5589 250.392,303.9999 247.079,303.9999 C243.766,303.9999 241.079,306.5589 241.079,309.7139 L241.079,323.9999 L253.079,323.9999 L253.079,309.7139 Z"/>
      <path stroke-width="2" d="M217.079,309.7139 C217.079,306.5589 214.392,303.9999 211.079,303.9999 C207.766,303.9999 205.079,306.5589 205.079,309.7139 L205.079,323.9999 L217.079,323.9999 L217.079,309.7139 Z"/>
      <path stroke-width="2" d="M19.079,309.7139 C19.079,306.5589 16.392,303.9999 13.079,303.9999 C9.766,303.9999 7.079,306.5589 7.079,309.7139 L7.079,323.9999 L19.079,323.9999 L19.079,309.7139 Z"/>
      <path stroke-width="2" d="M55.079,309.7139 C55.079,306.5589 52.392,303.9999 49.079,303.9999 C45.766,303.9999 43.079,306.5589 43.079,309.7139 L43.079,323.9999 L55.079,323.9999 L55.079,309.7139 Z"/>
      <path stroke-width="2" d="M73.079,309.7139 C73.079,306.5589 70.392,303.9999 67.079,303.9999 C63.766,303.9999 61.079,306.5589 61.079,309.7139 L61.079,323.9999 L73.079,323.9999 L73.079,309.7139 Z"/>
      <path stroke-width="2" d="M37.079,309.7139 C37.079,306.5589 34.392,303.9999 31.079,303.9999 C27.766,303.9999 25.079,306.5589 25.079,309.7139 L25.079,323.9999 L37.079,323.9999 L37.079,309.7139 Z"/>
      <polygon stroke-width="2" points="136.079 324 152.079 324 152.079 300 136.079 300"/>
      <polygon stroke-width="2" points="140.079 320 148.079 320 148.079 312 140.079 312"/>
      <polygon stroke-width="2" points="140.079 308 148.079 308 148.079 304 140.079 304"/>
      <polygon stroke-width="2" points="152.079 324 168.079 324 168.079 300 152.079 300"/>
      <polygon stroke-width="2" points="156.079 320 164.079 320 164.079 312 156.079 312"/>
      <polygon stroke-width="2" points="156.079 308 164.079 308 164.079 304 156.079 304"/>
      <polygon stroke-width="2" points="129.903 180 153.903 198 156.57 200 162.079 200 162.079 176 98.079 176 98.079 200 103.237 200 105.903 198"/>
      <polygon stroke-width="2" points="156.57 200 153.903 198 129.903 180 105.903 198 103.237 200 100.653 201.937 81.903 216 82.079 216 97.903 216 110.403 206.625 113.903 204 119.237 200 129.903 192 140.57 200 145.903 204 161.903 216 177.903 216"/>
      <polygon stroke-width="2" points="96.079 176 164.079 176 164.079 172 96.079 172"/>
      <polygon stroke-width="2" points="106.079 172 154.079 172 154.079 108 106.079 108"/>
      <polygon stroke-width="2" points="104.079 108 156.079 108 156.079 104 104.079 104"/>
      <polygon stroke-width="2" points="110.079 172 150.079 172 150.079 112 110.079 112"/>
      <polygon stroke-width="2" points="104.079 104 156.079 104 156.079 96 104.079 96"/>
      <polygon stroke-width="2" points="108.079 96 112.079 96 112.079 60 108.079 60"/>
      <polygon stroke-width="2" points="148.079 96 152.079 96 152.079 60 148.079 60"/>
      <polygon stroke-width="2" points="138.079 96 142.079 96 142.079 60 138.079 60"/>
      <polygon stroke-width="2" points="118.079 96 122.079 96 122.079 60 118.079 60"/>
      <polygon stroke-width="2" points="106.079 60 154.079 60 154.079 52 106.079 52"/>
      <polygon stroke-width="2" points="128.079 96 132.079 96 132.079 60 128.079 60"/>
      <polygon stroke-width="2" points="140.079 20 120.079 20 112.079 52 148.079 52"/>
      <polygon stroke-width="2" points="120.079 20 140.079 20 140.079 16 120.079 16"/>
      <path stroke-width="2" d="M142.079,131 C142.079,137.627 136.706,143 130.079,143 C123.452,143 118.079,137.627 118.079,131 C118.079,124.373 123.452,119 130.079,119 C136.706,119 142.079,124.373 142.079,131 Z"/>
      <path stroke-width="2" d="M130.079,131 L130.079,123"/>
      <path stroke-width="2" d="M130.079,131 L136.079,131"/>
      <path stroke-width="2" d="M130.079,16 L130.079,12"/>
      <path stroke-width="2" d="M130.079,4 L130.079,0"/>
      <polygon stroke-width="2" points="130.079 12 126.079 8 130.079 4 134.079 8"/>
    </g>
    <g stroke="#FFFFFF" transform="translate(560 680)">
      <polygon stroke-width="2" points="0 108 160 108 160 28 0 28"/>
      <polygon stroke-width="2" points="16 108 48 108 48 52 16 52"/>
      <polygon stroke-width="2" points="21 102 43 102 43 58 21 58"/>
      <polygon stroke-width="2" points="64 108 144 108 144 44 64 44"/>
      <polygon stroke-width="2" points="60 44 148 44 148 36 60 36"/>
      <polygon stroke-width="2" points="120 12 120 24 40 24 40 12 0 12 0 28 160 28 160 12"/>
      <polygon stroke-width="2" points="40 0 40 12 40 24 120 24 120 12 120 0"/>
      <path stroke-width="2" d="M72,100 L136,100"/>
      <path stroke-width="2" d="M72,92 L136,92"/>
      <path stroke-width="2" d="M72,84 L136,84"/>
      <path stroke-width="2" d="M72,76 L136,76"/>
      <path stroke-width="2" d="M72,52 L136,52"/>
      <path stroke-width="2" d="M72,60 L136,60"/>
      <path stroke-width="2" d="M72,68 L136,68"/>
      <path stroke-width="2" d="M43,42 C43.256,45.359 45.842,48 49,48 C52.158,48 54.744,45.359 55,42 L43,42 Z"/>
      <path stroke-width="2" d="M31,42 C31.256,45.359 33.842,48 37,48 C40.158,48 42.744,45.359 43,42 L31,42 Z"/>
      <path stroke-width="2" d="M19,42 C19.256,45.359 21.842,48 25,48 C28.158,48 30.744,45.359 31,42 L19,42 Z"/>
      <path stroke-width="2" d="M7,42 C7.256,45.359 9.842,48 13,48 C16.158,48 18.744,45.359 19,42 L7,42 Z"/>
      <polygon stroke-width="2" points="7 42 19 42 19 32 7 32"/>
      <polygon stroke-width="2" points="19 42 31 42 31 32 19 32"/>
      <polygon stroke-width="2" points="31 42 43 42 43 32 31 32"/>
      <polygon stroke-width="2" points="43 42 55 42 55 32 43 32"/>
      <polygon stroke-width="2" points="26 83 38 83 38 77 26 77"/>
      <path stroke-width="2" d="M28,77 L32,69"/>
      <path stroke-width="2" d="M32,69 L36,77"/>
    </g>
    <path fill="#7F19E7" fill-rule="nonzero" d="M1000,476 L1000,484 C980.117749,484 964,500.117749 964,520 L956,520 C956,495.699471 975.699471,476 1000,476 Z"/>
    <path fill="#7F19E7" fill-rule="nonzero" d="M920,804 L920,796 C939.882251,796 956,779.882251 956,760 L964,760 C964,784.300529 944.300529,804 920,804 Z"/>
    <polygon fill="#33CCCC" fill-rule="nonzero" points="1080 952 1080 960 44 960 44 952"/>
    <polygon fill="#33CCCC" fill-rule="nonzero" points="1124 680 1124 916 1116 916 1116 680"/>
    <polygon fill="#33CCCC" fill-rule="nonzero" points="8 520 8 916 0 916 0 520"/>
    <path fill="#7F19E7" fill-rule="nonzero" d="M1124,520 L1116,520 C1116,500.117749 1099.88225,484 1080,484 L1080,476 C1104.30053,476 1124,495.699471 1124,520 Z"/>
    <path fill="#0054FF" fill-rule="nonzero" d="M1124,252 L1116,252 C1116,232.117749 1099.88225,216 1080,216 L1080,208 C1104.30053,208 1124,227.699471 1124,252 Z"/>
    <path fill="#33CCCC" fill-rule="nonzero" d="M1124,680 L1116,680 C1116,660.117749 1099.88225,644 1080,644 L1080,636 C1104.30053,636 1124,655.699471 1124,680 Z"/>
    <path fill="#33CCCC" fill-rule="nonzero" d="M0,916 L8,916 C8,935.882251 24.117749,952 44,952 L44,960 C19.699471,960 0,940.300529 0,916 Z"/>
    <path fill="#33CCCC" fill-rule="nonzero" d="M1080,960 L1080,952 C1099.88225,952 1116,935.882251 1116,916 L1124,916 C1124,940.300529 1104.30053,960 1080,960 Z"/>
    <path fill="#33CCCC" fill-rule="nonzero" d="M476,600 L484,600 C484,619.882251 500.117749,636 520,636 L520,644 C495.699471,644 476,624.300529 476,600 Z"/>
    <g stroke="#FFFFFF" stroke-width="2" transform="translate(616 319)">
      <path d="M62,30 C71.941,30 80,38.059 80,48 C80,57.941 71.941,66 62,66 C52.059,66 44,57.941 44,48 C44,38.059 52.059,30 62,30 Z"/>
      <path d="M62,46 L62,73"/>
      <path d="M62,61 L70,53"/>
      <path d="M54,46 L62,54"/>
      <path d="M214,19 C227.255,19 238,29.745 238,43 C238,56.255 227.255,67 214,67 C200.745,67 190,56.255 190,43 C190,29.745 200.745,19 214,19 Z"/>
      <path d="M214,43 L214,72"/>
      <path d="M214,58 L222,50"/>
      <path d="M206,43 L214,51"/>
      <path d="M21,0 C21,0 33,27.745 33,41 C33,54.255 27.627,65 21,65 C14.373,65 9,54.255 9,41 C9,27.745 21,0 21,0 Z"/>
      <path d="M21,65 L21,73"/>
      <polygon points="152 77 240 77 240 73 152 73"/>
      <polygon points="12 95 20 95 20 91 12 91"/>
      <polygon points="20 95 28 95 28 91 20 91"/>
      <polygon points="16 91 24 91 24 87 16 87"/>
      <polygon points="16 99 24 99 24 95 16 95"/>
      <polygon points="170 116 178 116 178 112 170 112"/>
      <polygon points="178 116 186 116 186 112 178 112"/>
      <polygon points="174 112 182 112 182 108 174 108"/>
      <polygon points="174 120 182 120 182 116 174 116"/>
      <polygon points="88 110 84 110 80 110 80 114 84 114 88 114"/>
      <polygon points="84 110 88 110 88 106 84 106"/>
      <polygon points="84 118 88 118 88 114 84 114"/>
      <polygon points="152 89 156 89 160 89 160 85 156 85 152 85"/>
      <polygon points="152 85 156 85 156 81 152 81"/>
      <polygon points="152 93 156 93 156 89 152 89"/>
      <polygon points="0 137 88 137 88 73 0 73"/>
      <polygon points="152 137 240 137 240 73 152 73"/>
      <polygon points="0 77 88 77 88 73 0 73"/>
      <path d="M120,41 C102.327,41 88,55.327 88,73 L88,137 L96,137 L96,73 C96,59.745 106.745,49 120,49 C133.255,49 144,59.745 144,73 L144,137 L152,137 L152,73 C152,55.327 137.673,41 120,41 Z"/>
      <polygon points="96 95 120 95 120 91 96 91"/>
      <polygon points="96 127 120 127 120 123 96 123"/>
      <polygon points="120 95 144 95 144 91 120 91"/>
      <polygon points="120 127 144 127 144 123 120 123"/>
      <path d="M128,62 L128,134"/>
      <path d="M124,58 L124,134"/>
      <path d="M136,70 L136,134"/>
      <path d="M132,66 L132,134"/>
      <path d="M140,74 L140,134"/>
      <path d="M104,70 L104,134"/>
      <path d="M100,74 L100,134"/>
      <path d="M112,62 L112,134"/>
      <path d="M108,66 L108,134"/>
      <path d="M116,58 L116,134"/>
      <path d="M120,54 L120,134"/>
      <polygon points="240 108 236 108 232 108 232 112 236 112 240 112"/>
      <polygon points="236 108 240 108 240 104 236 104"/>
      <polygon points="236 116 240 116 240 112 236 112"/>
      <polygon points="0 127 4 127 8 127 8 123 4 123 0 123"/>
      <polygon points="0 123 4 123 4 119 0 119"/>
      <polygon points="0 131 4 131 4 127 0 127"/>
    </g>
    <g stroke="#FFFFFF" transform="translate(581 536)">
      <path stroke-width="2" d="M116,8 L246,8 C248.209139,8 250,9.790861 250,12 L250,21 L255,45 L255,79.0000005 L206.911918,79 C207.610513,77.4778869 208,75.7844282 208,74 C208,67.372583 202.627417,62 196,62 C189.372583,62 184,67.372583 184,74 C184,75.7844282 184.389487,77.4778869 185.088085,79.0000005 L116,79.0000005 L69.9119181,79 C70.6105132,77.4778869 71,75.7844282 71,74 C71,67.372583 65.627417,62 59,62 C52.372583,62 47,67.372583 47,74 C47,75.7844282 47.3894868,77.4778869 48.0880847,79.0000005 L40.7155197,79 L0,72.7553751 L0,12 C0,9.790861 1.790861,8 4,8 L116,8 Z"/>
      <circle cx="196" cy="74" r="12" stroke-width="2"/>
      <circle cx="196" cy="74" r="6" stroke-width="2"/>
      <circle cx="59" cy="74" r="12" stroke-width="2"/>
      <circle cx="59" cy="74" r="6" stroke-width="2"/>
      <g transform="translate(7 20)">
        <g transform="translate(204)">
          <polygon stroke-width="2" points="0 48 12 48 12 0 0 0"/>
          <polygon stroke-width="2" points="12 48 24 48 24 0 12 0"/>
        </g>
        <g transform="translate(72)">
          <polygon stroke-width="2" points="0 48 12 48 12 0 0 0"/>
          <polygon stroke-width="2" points="12 48 24 48 24 0 12 0"/>
        </g>
        <rect width="36" height="24" x="168" stroke-width="2"/>
        <rect width="36" height="24" x="132" stroke-width="2"/>
        <rect width="36" height="24" x="96" stroke-width="2"/>
        <rect width="36" height="24" x="36" stroke-width="2"/>
        <rect width="36" height="24" stroke-width="2"/>
      </g>
      <rect width="4" height="12" y="50" stroke-width="2"/>
      <rect width="4" height="12" x="251" y="56" stroke-width="2"/>
      <polygon stroke-width="2" points="235 20 249.706 20 255 44 235 44"/>
      <path stroke-width="2" d="M208,4 L208,8 L144,8 L144,4 C144,1.790861 145.790861,4.05812251e-16 148,0 L204,0 C206.209139,-4.05812251e-16 208,1.790861 208,4 Z"/>
    </g>
    <path fill="#33CCCC" fill-rule="nonzero" d="M44,476 L44,484 C24.117749,484 8,500.117749 8,520 L0,520 C0,495.699471 19.699471,476 44,476 Z"/>
    <path fill="#000000" stroke="#FFFFFF" stroke-width="4" d="M11.5221668,1.90583626 L14.0941637,4.47783321 C15.3188979,5.70256734 15.6354958,6.27420578 15.8437839,6.96140664 C16.052072,7.6486075 16.052072,8.3513925 15.8437839,9.03859336 C15.6354958,9.72579422 15.3188979,10.2974327 14.0941637,11.5221668 L11.5221668,14.0941637 C10.2974327,15.3188979 9.72579422,15.6354958 9.03859336,15.8437839 C8.3513925,16.052072 7.6486075,16.052072 6.96140664,15.8437839 C6.27420578,15.6354958 5.70256734,15.3188979 4.47783321,14.0941637 L1.90583626,11.5221668 C0.68110214,10.2974327 0.364504204,9.72579422 0.156216087,9.03859336 C-0.0520720291,8.3513925 -0.0520720291,7.6486075 0.156216087,6.96140664 C0.364504204,6.27420578 0.68110214,5.70256734 1.90583626,4.47783321 L4.47783321,1.90583626 C5.70256734,0.68110214 6.27420578,0.364504204 6.96140664,0.156216087 C7.6486075,-0.0520720291 8.3513925,-0.0520720291 9.03859336,0.156216087 C9.72579422,0.364504204 10.2974327,0.68110214 11.5221668,1.90583626 Z" transform="translate(360 472)"/>
    <path fill="#000000" stroke="#FFFFFF" stroke-width="4" d="M11.5221668,1.90583626 L14.0941637,4.47783321 C15.3188979,5.70256734 15.6354958,6.27420578 15.8437839,6.96140664 C16.052072,7.6486075 16.052072,8.3513925 15.8437839,9.03859336 C15.6354958,9.72579422 15.3188979,10.2974327 14.0941637,11.5221668 L11.5221668,14.0941637 C10.2974327,15.3188979 9.72579422,15.6354958 9.03859336,15.8437839 C8.3513925,16.052072 7.6486075,16.052072 6.96140664,15.8437839 C6.27420578,15.6354958 5.70256734,15.3188979 4.47783321,14.0941637 L1.90583626,11.5221668 C0.68110214,10.2974327 0.364504204,9.72579422 0.156216087,9.03859336 C-0.0520720291,8.3513925 -0.0520720291,7.6486075 0.156216087,6.96140664 C0.364504204,6.27420578 0.68110214,5.70256734 1.90583626,4.47783321 L4.47783321,1.90583626 C5.70256734,0.68110214 6.27420578,0.364504204 6.96140664,0.156216087 C7.6486075,-0.0520720291 8.3513925,-0.0520720291 9.03859336,0.156216087 C9.72579422,0.364504204 10.2974327,0.68110214 11.5221668,1.90583626 Z" transform="translate(472 592)"/>
    <path fill="#000000" stroke="#FFFFFF" stroke-width="4" d="M11.5221668,1.90583626 L14.0941637,4.47783321 C15.3188979,5.70256734 15.6354958,6.27420578 15.8437839,6.96140664 C16.052072,7.6486075 16.052072,8.3513925 15.8437839,9.03859336 C15.6354958,9.72579422 15.3188979,10.2974327 14.0941637,11.5221668 L11.5221668,14.0941637 C10.2974327,15.3188979 9.72579422,15.6354958 9.03859336,15.8437839 C8.3513925,16.052072 7.6486075,16.052072 6.96140664,15.8437839 C6.27420578,15.6354958 5.70256734,15.3188979 4.47783321,14.0941637 L1.90583626,11.5221668 C0.68110214,10.2974327 0.364504204,9.72579422 0.156216087,9.03859336 C-0.0520720291,8.3513925 -0.0520720291,7.6486075 0.156216087,6.96140664 C0.364504204,6.27420578 0.68110214,5.70256734 1.90583626,4.47783321 L4.47783321,1.90583626 C5.70256734,0.68110214 6.27420578,0.364504204 6.96140664,0.156216087 C7.6486075,-0.0520720291 8.3513925,-0.0520720291 9.03859336,0.156216087 C9.72579422,0.364504204 10.2974327,0.68110214 11.5221668,1.90583626 Z" transform="translate(360 792)"/>
    <path fill="#000000" stroke="#FFFFFF" stroke-width="4" d="M11.5221668,1.90583626 L14.0941637,4.47783321 C15.3188979,5.70256734 15.6354958,6.27420578 15.8437839,6.96140664 C16.052072,7.6486075 16.052072,8.3513925 15.8437839,9.03859336 C15.6354958,9.72579422 15.3188979,10.2974327 14.0941637,11.5221668 L11.5221668,14.0941637 C10.2974327,15.3188979 9.72579422,15.6354958 9.03859336,15.8437839 C8.3513925,16.052072 7.6486075,16.052072 6.96140664,15.8437839 C6.27420578,15.6354958 5.70256734,15.3188979 4.47783321,14.0941637 L1.90583626,11.5221668 C0.68110214,10.2974327 0.364504204,9.72579422 0.156216087,9.03859336 C-0.0520720291,8.3513925 -0.0520720291,7.6486075 0.156216087,6.96140664 C0.364504204,6.27420578 0.68110214,5.70256734 1.90583626,4.47783321 L4.47783321,1.90583626 C5.70256734,0.68110214 6.27420578,0.364504204 6.96140664,0.156216087 C7.6486075,-0.0520720291 8.3513925,-0.0520720291 9.03859336,0.156216087 C9.72579422,0.364504204 10.2974327,0.68110214 11.5221668,1.90583626 Z" transform="translate(1112 672)"/>
    <path fill="#000000" stroke="#FFFFFF" stroke-width="4" d="M11.5221668,1.90583626 L14.0941637,4.47783321 C15.3188979,5.70256734 15.6354958,6.27420578 15.8437839,6.96140664 C16.052072,7.6486075 16.052072,8.3513925 15.8437839,9.03859336 C15.6354958,9.72579422 15.3188979,10.2974327 14.0941637,11.5221668 L11.5221668,14.0941637 C10.2974327,15.3188979 9.72579422,15.6354958 9.03859336,15.8437839 C8.3513925,16.052072 7.6486075,16.052072 6.96140664,15.8437839 C6.27420578,15.6354958 5.70256734,15.3188979 4.47783321,14.0941637 L1.90583626,11.5221668 C0.68110214,10.2974327 0.364504204,9.72579422 0.156216087,9.03859336 C-0.0520720291,8.3513925 -0.0520720291,7.6486075 0.156216087,6.96140664 C0.364504204,6.27420578 0.68110214,5.70256734 1.90583626,4.47783321 L4.47783321,1.90583626 C5.70256734,0.68110214 6.27420578,0.364504204 6.96140664,0.156216087 C7.6486075,-0.0520720291 8.3513925,-0.0520720291 9.03859336,0.156216087 C9.72579422,0.364504204 10.2974327,0.68110214 11.5221668,1.90583626 Z" transform="translate(992 472)"/>
    <path fill="#000000" stroke="#FFFFFF" stroke-width="4" d="M11.5221668,1.90583626 L14.0941637,4.47783321 C15.3188979,5.70256734 15.6354958,6.27420578 15.8437839,6.96140664 C16.052072,7.6486075 16.052072,8.3513925 15.8437839,9.03859336 C15.6354958,9.72579422 15.3188979,10.2974327 14.0941637,11.5221668 L11.5221668,14.0941637 C10.2974327,15.3188979 9.72579422,15.6354958 9.03859336,15.8437839 C8.3513925,16.052072 7.6486075,16.052072 6.96140664,15.8437839 C6.27420578,15.6354958 5.70256734,15.3188979 4.47783321,14.0941637 L1.90583626,11.5221668 C0.68110214,10.2974327 0.364504204,9.72579422 0.156216087,9.03859336 C-0.0520720291,8.3513925 -0.0520720291,7.6486075 0.156216087,6.96140664 C0.364504204,6.27420578 0.68110214,5.70256734 1.90583626,4.47783321 L4.47783321,1.90583626 C5.70256734,0.68110214 6.27420578,0.364504204 6.96140664,0.156216087 C7.6486075,-0.0520720291 8.3513925,-0.0520720291 9.03859336,0.156216087 C9.72579422,0.364504204 10.2974327,0.68110214 11.5221668,1.90583626 Z" transform="translate(1112 512)"/>
    <g stroke="#FFFFFF" transform="translate(920 316)">
      <polygon stroke-width="2" points=".079 140 120.079 140 120.079 16 .079 16"/>
      <path stroke-width="2" d="M0.079,73 C0.335,76.359 2.921,79 6.079,79 C9.237,79 11.823,76.359 12.079,73 L0.079,73 Z"/>
      <path stroke-width="2" d="M12.079,73 C12.335,76.359 14.921,79 18.079,79 C21.237,79 23.823,76.359 24.079,73 L12.079,73 Z"/>
      <path stroke-width="2" d="M24.079,73 C24.335,76.359 26.921,79 30.079,79 C33.237,79 35.823,76.359 36.079,73 L24.079,73 Z"/>
      <path stroke-width="2" d="M36.079,73 C36.335,76.359 38.921,79 42.079,79 C45.237,79 47.823,76.359 48.079,73 L36.079,73 Z"/>
      <path stroke-width="2" d="M48.079,73 C48.335,76.359 50.921,79 54.079,79 C57.237,79 59.823,76.359 60.079,73 L48.079,73 Z"/>
      <path stroke-width="2" d="M60.079,73 C60.335,76.359 62.921,79 66.079,79 C69.237,79 71.823,76.359 72.079,73 L60.079,73 Z"/>
      <path stroke-width="2" d="M72.079,73 C72.335,76.359 74.921,79 78.079,79 C81.237,79 83.823,76.359 84.079,73 L72.079,73 Z"/>
      <path stroke-width="2" d="M84.079,73 C84.335,76.359 86.921,79 90.079,79 C93.237,79 95.823,76.359 96.079,73 L84.079,73 Z"/>
      <path stroke-width="2" d="M96.079,73 C96.335,76.359 98.921,79 102.079,79 C105.237,79 107.823,76.359 108.079,73 L96.079,73 Z"/>
      <path stroke-width="2" d="M108.079,73 C108.335,76.359 110.921,79 114.079,79 C117.237,79 119.823,76.359 120.079,73 L108.079,73 Z"/>
      <polygon stroke-width="2" points=".079 73 12.079 73 12.079 57 .079 57"/>
      <polygon stroke-width="2" points="12.079 73 24.079 73 24.079 57 12.079 57"/>
      <polygon stroke-width="2" points="24.079 73 36.079 73 36.079 57 24.079 57"/>
      <polygon stroke-width="2" points="36.079 73 48.079 73 48.079 57 36.079 57"/>
      <polygon stroke-width="2" points="48.079 73 60.079 73 60.079 57 48.079 57"/>
      <polygon stroke-width="2" points="60.079 73 72.079 73 72.079 57 60.079 57"/>
      <polygon stroke-width="2" points="72.079 73 84.079 73 84.079 57 72.079 57"/>
      <polygon stroke-width="2" points="84.079 73 96.079 73 96.079 57 84.079 57"/>
      <polygon stroke-width="2" points="96.079 73 108.079 73 108.079 57 96.079 57"/>
      <polygon stroke-width="2" points="108.079 73 120.079 73 120.079 57 108.079 57"/>
      <polygon stroke-width="2" points="8.079 140 40.079 140 40.079 84 8.079 84"/>
      <polygon stroke-width="2" points="13.079 134 35.079 134 35.079 90 13.079 90"/>
      <path stroke-width="2" d="M99.079,94 L67.079,126"/>
      <path stroke-width="2" d="M74.079,107 L58.079,123"/>
      <path stroke-width="2" d="M89.079,92 L81.079,100"/>
      <polygon stroke-width="2" points="46.079 84 46.079 108 46.079 132 114.079 132 114.079 108 114.079 84"/>
      <polygon stroke-width="2" points="12.079 41 36.079 41 36.079 25 12.079 25"/>
      <polygon stroke-width="2" points="48.079 41 72.079 41 72.079 25 48.079 25"/>
      <polygon stroke-width="2" points="84.079 41 108.079 41 108.079 25 84.079 25"/>
      <polygon stroke-width="2" points="12.079 49 36.079 49 36.079 41 12.079 41"/>
      <polygon stroke-width="2" points="48.079 49 72.079 49 72.079 41 48.079 41"/>
      <polygon stroke-width="2" points="84.079 49 108.079 49 108.079 41 84.079 41"/>
      <polygon stroke-width="2" points=".079 16 120.079 16 120.079 0 .079 0"/>
    </g>
    <g stroke="#FFFFFF" transform="translate(40 538)">
      <g transform="translate(0 28)">
        <polygon stroke-width="2" points="0 256 160 256 160 0 0 0"/>
        <polygon stroke-width="2" points="0 66 160 66 160 62 0 62"/>
        <polygon stroke-width="2" points="0 118 160 118 160 114 0 114"/>
      </g>
      <g>
        <polygon stroke-width="2" points="0 24 160 24 160 8 0 8"/>
        <polygon stroke-width="2" points="0 8 160 8 160 0 0 0"/>
        <polygon stroke-width="2" points="0 28 160 28 160 24 0 24"/>
        <polygon stroke-width="2" points="4 20 12 20 12 12 4 12"/>
        <polygon stroke-width="2" points="124 20 132 20 132 12 124 12"/>
        <polygon stroke-width="2" points="148 20 156 20 156 12 148 12"/>
        <polygon stroke-width="2" points="136 20 144 20 144 12 136 12"/>
        <polygon stroke-width="2" points="88 20 96 20 96 12 88 12"/>
        <polygon stroke-width="2" points="112 20 120 20 120 12 112 12"/>
        <polygon stroke-width="2" points="100 20 108 20 108 12 100 12"/>
        <polygon stroke-width="2" points="52 20 60 20 60 12 52 12"/>
        <polygon stroke-width="2" points="76 20 84 20 84 12 76 12"/>
        <polygon stroke-width="2" points="64 20 72 20 72 12 64 12"/>
        <polygon stroke-width="2" points="16 20 24 20 24 12 16 12"/>
        <polygon stroke-width="2" points="40 20 48 20 48 12 40 12"/>
        <polygon stroke-width="2" points="28 20 36 20 36 12 28 12"/>
      </g>
      <g transform="translate(13 48)">
        <g stroke-width="2">
          <polygon points="2 32 26 32 26 0 2 0"/>
          <polygon points="2 32 26 32 26 20 2 20"/>
          <polygon points="0 36 28 36 28 32 0 32"/>
        </g>
        <g stroke-width="2" transform="translate(35)">
          <polygon points="2 32 26 32 26 0 2 0"/>
          <polygon points="2 32 26 32 26 20 2 20"/>
          <polygon points="0 36 28 36 28 32 0 32"/>
        </g>
        <g stroke-width="2" transform="translate(71)">
          <polygon points="2 32 26 32 26 0 2 0"/>
          <polygon points="2 32 26 32 26 20 2 20"/>
          <polygon points="0 36 28 36 28 32 0 32"/>
        </g>
        <g stroke-width="2" transform="translate(107)">
          <polygon points="2 32 26 32 26 0 2 0"/>
          <polygon points="2 32 26 32 26 20 2 20"/>
          <polygon points="0 36 28 36 28 32 0 32"/>
        </g>
      </g>
      <g transform="translate(12 100)">
        <g stroke-width="2">
          <polygon points="2 32 26 32 26 0 2 0"/>
          <polygon points="2 32 26 32 26 20 2 20"/>
          <polygon points="0 36 28 36 28 32 0 32"/>
        </g>
        <g stroke-width="2" transform="translate(35)">
          <polygon points="2 32 26 32 26 0 2 0"/>
          <polygon points="2 32 26 32 26 20 2 20"/>
          <polygon points="0 36 28 36 28 32 0 32"/>
        </g>
        <g stroke-width="2" transform="translate(71)">
          <polygon points="2 32 26 32 26 0 2 0"/>
          <polygon points="2 32 26 32 26 20 2 20"/>
          <polygon points="0 36 28 36 28 32 0 32"/>
        </g>
        <g stroke-width="2" transform="translate(107)">
          <polygon points="2 32 26 32 26 0 2 0"/>
          <polygon points="2 32 26 32 26 20 2 20"/>
          <polygon points="0 36 28 36 28 32 0 32"/>
        </g>
      </g>
      <g transform="translate(13 156)">
        <g stroke-width="2">
          <polygon points="2 32 26 32 26 0 2 0"/>
          <polygon points="2 32 26 32 26 20 2 20"/>
          <polygon points="0 36 28 36 28 32 0 32"/>
        </g>
        <g stroke-width="2" transform="translate(35)">
          <polygon points="2 32 26 32 26 0 2 0"/>
          <polygon points="2 32 26 32 26 20 2 20"/>
          <polygon points="0 36 28 36 28 32 0 32"/>
        </g>
        <g stroke-width="2" transform="translate(71)">
          <polygon points="2 32 26 32 26 0 2 0"/>
          <polygon points="2 32 26 32 26 20 2 20"/>
          <polygon points="0 36 28 36 28 32 0 32"/>
        </g>
        <g stroke-width="2" transform="translate(107)">
          <polygon points="2 32 26 32 26 0 2 0"/>
          <polygon points="2 32 26 32 26 20 2 20"/>
          <polygon points="0 36 28 36 28 32 0 32"/>
        </g>
      </g>
      <g stroke-width="2" transform="translate(36 264)">
        <polygon points="8 4 80 4 80 0 8 0"/>
        <polygon points="6 8 82 8 82 4 6 4"/>
        <polygon points="4 12 84 12 84 8 4 8"/>
        <polygon points="2 16 86 16 86 12 2 12"/>
        <polygon points="0 20 88 20 88 16 0 16"/>
      </g>
      <g stroke-width="2" transform="translate(48 208)">
        <polygon points="0 56 32 56 32 0 0 0"/>
        <polygon points="5 22 13 22 13 6 5 6"/>
        <polygon points="19 22 27 22 27 6 19 6"/>
        <polygon points="5 50 13 50 13 30 5 30"/>
        <polygon points="19 50 27 50 27 30 19 30"/>
      </g>
      <g stroke-width="2" transform="translate(80 208)">
        <polygon points="0 56 32 56 32 0 0 0"/>
        <polygon points="5 22 13 22 13 6 5 6"/>
        <polygon points="19 22 27 22 27 6 19 6"/>
        <polygon points="5 50 13 50 13 30 5 30"/>
        <polygon points="19 50 27 50 27 30 19 30"/>
      </g>
      <g stroke-width="2" transform="translate(128 235)">
        <polygon points="0 8 8 8 8 4 0 4"/>
        <polygon points="8 8 16 8 16 4 8 4"/>
        <polygon points="4 4 12 4 12 0 4 0"/>
        <polygon points="4 12 12 12 12 8 4 8"/>
      </g>
      <g stroke-width="2" transform="translate(18 208)">
        <polygon points="0 8 8 8 8 4 0 4"/>
        <polygon points="8 8 16 8 16 4 8 4"/>
        <polygon points="4 4 12 4 12 0 4 0"/>
        <polygon points="4 12 12 12 12 8 4 8"/>
      </g>
    </g>
  </g>
</svg>
