<svg id="Layer_1" data-name="Layer 1" xmlns="http://www.w3.org/2000/svg" xmlns:xlink="http://www.w3.org/1999/xlink" width="640" height="640" viewBox="0 0 640 640">
  <defs>
    <clipPath id="clip-path">
      <rect x="-1575" y="-633" width="1619" height="336" fill="none"/>
    </clipPath>
  </defs>
  <title>hero-right</title>
  <g clip-path="url(#clip-path)">
    <image width="1600" height="1200" transform="translate(-1556 -1100)" xlink:href="../../Desktop/att1.png"/>
  </g>
  <g>
    <rect x="479" y="399" width="160" height="240" fill="#adcfff" stroke="#000" stroke-width="2"/>
    <rect x="479" y="383" width="160" height="16" fill="#76aeff" stroke="#000" stroke-width="2"/>
    <rect x="479" y="375" width="160" height="8" fill="#76aeff" stroke="#000" stroke-width="2"/>
    <g>
      <g>
        <rect x="559" y="583" width="32" height="56" fill="#76aeff" stroke="#000" stroke-width="2"/>
        <rect x="564" y="589" width="8" height="16" fill="none" stroke="#0c70fe" stroke-width="2"/>
        <rect x="578" y="589" width="8" height="16" fill="none" stroke="#0c70fe" stroke-width="2"/>
        <rect x="564" y="613" width="8" height="20" fill="none" stroke="#0c70fe" stroke-width="2"/>
        <rect x="578" y="613" width="8" height="20" fill="none" stroke="#0c70fe" stroke-width="2"/>
      </g>
      <g>
        <rect x="527" y="583" width="32" height="56" fill="#76aeff" stroke="#000" stroke-width="2"/>
        <rect x="532" y="589" width="8" height="16" fill="none" stroke="#0c70fe" stroke-width="2"/>
        <rect x="546" y="589" width="8" height="16" fill="none" stroke="#0c70fe" stroke-width="2"/>
        <rect x="532" y="613" width="8" height="20" fill="none" stroke="#0c70fe" stroke-width="2"/>
        <rect x="546" y="613" width="8" height="20" fill="none" stroke="#0c70fe" stroke-width="2"/>
      </g>
    </g>
    <g>
      <g>
        <rect x="601" y="531" width="24" height="32" fill="#fff" stroke="#000" stroke-width="2"/>
        <rect x="601" y="551" width="24" height="12" fill="#fff" stroke="#000" stroke-width="2"/>
        <rect x="599" y="563" width="28" height="4" fill="#76aeff" stroke="#000" stroke-width="2"/>
      </g>
      <g>
        <rect x="565" y="531" width="24" height="32" fill="#fff" stroke="#000" stroke-width="2"/>
        <rect x="565" y="551" width="24" height="12" fill="#fff" stroke="#000" stroke-width="2"/>
        <rect x="563" y="563" width="28" height="4" fill="#76aeff" stroke="#000" stroke-width="2"/>
      </g>
      <g>
        <rect x="529" y="531" width="24" height="32" fill="#fff" stroke="#000" stroke-width="2"/>
        <rect x="529" y="551" width="24" height="12" fill="#fff" stroke="#000" stroke-width="2"/>
        <rect x="527" y="563" width="28" height="4" fill="#76aeff" stroke="#000" stroke-width="2"/>
      </g>
      <g>
        <rect x="494" y="531" width="24" height="32" fill="#fff" stroke="#000" stroke-width="2"/>
        <rect x="494" y="551" width="24" height="12" fill="#fff" stroke="#000" stroke-width="2"/>
        <rect x="492" y="563" width="28" height="4" fill="#76aeff" stroke="#000" stroke-width="2"/>
      </g>
    </g>
    <g>
      <g>
        <rect x="601" y="479" width="24" height="32" fill="#fff" stroke="#000" stroke-width="2"/>
        <rect x="601" y="499" width="24" height="12" fill="#fff" stroke="#000" stroke-width="2"/>
        <rect x="599" y="511" width="28" height="4" fill="#76aeff" stroke="#000" stroke-width="2"/>
      </g>
      <g>
        <rect x="565" y="479" width="24" height="32" fill="#fff" stroke="#000" stroke-width="2"/>
        <rect x="565" y="499" width="24" height="12" fill="#fff" stroke="#000" stroke-width="2"/>
        <rect x="563" y="511" width="28" height="4" fill="#76aeff" stroke="#000" stroke-width="2"/>
      </g>
      <g>
        <rect x="529" y="479" width="24" height="32" fill="#fff" stroke="#000" stroke-width="2"/>
        <rect x="529" y="499" width="24" height="12" fill="#fff" stroke="#000" stroke-width="2"/>
        <rect x="527" y="511" width="28" height="4" fill="#76aeff" stroke="#000" stroke-width="2"/>
      </g>
      <g>
        <rect x="494" y="479" width="24" height="32" fill="#fff" stroke="#000" stroke-width="2"/>
        <rect x="494" y="499" width="24" height="12" fill="#fff" stroke="#000" stroke-width="2"/>
        <rect x="492" y="511" width="28" height="4" fill="#76aeff" stroke="#000" stroke-width="2"/>
      </g>
    </g>
    <g>
      <g>
        <rect x="601" y="427" width="24" height="32" fill="#fff" stroke="#000" stroke-width="2"/>
        <rect x="601" y="447" width="24" height="12" fill="#fff" stroke="#000" stroke-width="2"/>
        <rect x="599" y="459" width="28" height="4" fill="#76aeff" stroke="#000" stroke-width="2"/>
      </g>
      <g>
        <rect x="565" y="427" width="24" height="32" fill="#fff" stroke="#000" stroke-width="2"/>
        <rect x="565" y="447" width="24" height="12" fill="#fff" stroke="#000" stroke-width="2"/>
        <rect x="563" y="459" width="28" height="4" fill="#76aeff" stroke="#000" stroke-width="2"/>
      </g>
      <g>
        <rect x="529" y="427" width="24" height="32" fill="#fff" stroke="#000" stroke-width="2"/>
        <rect x="529" y="447" width="24" height="12" fill="#fff" stroke="#000" stroke-width="2"/>
        <rect x="527" y="459" width="28" height="4" fill="#76aeff" stroke="#000" stroke-width="2"/>
      </g>
      <g>
        <rect x="494" y="427" width="24" height="32" fill="#fff" stroke="#000" stroke-width="2"/>
        <rect x="494" y="447" width="24" height="12" fill="#fff" stroke="#000" stroke-width="2"/>
        <rect x="492" y="459" width="28" height="4" fill="#76aeff" stroke="#000" stroke-width="2"/>
      </g>
    </g>
  </g>
  <g>
    <rect x="47" y="623" width="32" height="16" fill="#76aeff" stroke="#000" stroke-width="2"/>
    <g>
      <circle cx="63" cy="586" r="12" fill="#adcfff" stroke="#000" stroke-width="2"/>
      <circle cx="68" cy="609" r="4" fill="#adcfff" stroke="#000" stroke-width="2"/>
      <circle cx="58" cy="613" r="4" transform="translate(-557.74 612.62) rotate(-84.56)" fill="#adcfff" stroke="#000" stroke-width="2"/>
      <path d="M63,598v24" fill="#adcfff" stroke="#000" stroke-width="2"/>
    </g>
  </g>
  <g>
    <rect x="359" y="511" width="120" height="128" fill="#adcfff" stroke="#000" stroke-width="2"/>
    <g>
      <rect x="371" y="583" width="32" height="56" fill="#76aeff" stroke="#000" stroke-width="2"/>
      <rect x="376" y="589" width="8" height="16" fill="none" stroke="#0c70fe" stroke-width="2"/>
      <rect x="390" y="589" width="8" height="16" fill="none" stroke="#0c70fe" stroke-width="2"/>
      <rect x="376" y="613" width="8" height="20" fill="none" stroke="#0c70fe" stroke-width="2"/>
      <rect x="390" y="613" width="8" height="20" fill="none" stroke="#0c70fe" stroke-width="2"/>
    </g>
    <g>
      <rect x="415" y="606" width="48" height="16" fill="#fff" stroke="#000" stroke-width="2"/>
      <path d="M415,606a24,24,0,0,1,48,0Z" fill="#fff" stroke="#000" stroke-width="2"/>
      <path d="M447,622V602a8,8,0,0,0-16,0v20Z" fill="#fff" stroke="#000" stroke-width="2"/>
      <rect x="411" y="622" width="56" height="4" fill="#76aeff" stroke="#000" stroke-width="2"/>
    </g>
    <g>
      <path d="M387,534v32H371V534a8,8,0,0,1,16,0Z" fill="#fff" stroke="#000" stroke-width="2"/>
      <rect x="371" y="554" width="16" height="12" fill="#fff" stroke="#000" stroke-width="2"/>
      <rect x="369" y="566" width="20" height="4" fill="#76aeff" stroke="#000" stroke-width="2"/>
    </g>
    <g>
      <path d="M413,534v32H397V534a8,8,0,0,1,16,0Z" fill="#fff" stroke="#000" stroke-width="2"/>
      <rect x="397" y="554" width="16" height="12" fill="#fff" stroke="#000" stroke-width="2"/>
      <rect x="395" y="566" width="20" height="4" fill="#76aeff" stroke="#000" stroke-width="2"/>
    </g>
    <g>
      <path d="M439,534v32H423V534a8,8,0,0,1,16,0Z" fill="#fff" stroke="#000" stroke-width="2"/>
      <rect x="423" y="554" width="16" height="12" fill="#fff" stroke="#000" stroke-width="2"/>
      <rect x="421" y="566" width="20" height="4" fill="#76aeff" stroke="#000" stroke-width="2"/>
    </g>
    <g>
      <path d="M465,534v32H449V534a8,8,0,0,1,16,0Z" fill="#fff" stroke="#000" stroke-width="2"/>
      <rect x="449" y="554" width="16" height="12" fill="#fff" stroke="#000" stroke-width="2"/>
      <rect x="447" y="566" width="20" height="4" fill="#76aeff" stroke="#000" stroke-width="2"/>
    </g>
    <rect x="359" y="495" width="120" height="16" fill="#76aeff" stroke="#000" stroke-width="2"/>
  </g>
  <g>
    <rect x="239" y="463" width="120" height="176" fill="#adcfff" stroke="#000" stroke-width="2"/>
    <g>
      <rect x="283" y="583" width="32" height="56" fill="#76aeff" stroke="#000" stroke-width="2"/>
      <rect x="288" y="589" width="8" height="16" fill="none" stroke="#0c70fe" stroke-width="2"/>
      <rect x="302" y="589" width="8" height="16" fill="none" stroke="#0c70fe" stroke-width="2"/>
      <rect x="288" y="613" width="8" height="20" fill="none" stroke="#0c70fe" stroke-width="2"/>
      <rect x="302" y="613" width="8" height="20" fill="none" stroke="#0c70fe" stroke-width="2"/>
    </g>
    <g>
      <path d="M269,590v32H253V590a8,8,0,0,1,16,0Z" fill="#fff" stroke="#000" stroke-width="2"/>
      <rect x="253" y="610" width="16" height="12" fill="#fff" stroke="#000" stroke-width="2"/>
      <rect x="251" y="622" width="20" height="4" fill="#76aeff" stroke="#000" stroke-width="2"/>
    </g>
    <g>
      <path d="M345,591v32H329V591a8,8,0,0,1,16,0Z" fill="#fff" stroke="#000" stroke-width="2"/>
      <rect x="329" y="611" width="16" height="12" fill="#fff" stroke="#000" stroke-width="2"/>
      <rect x="327" y="623" width="20" height="4" fill="#76aeff" stroke="#000" stroke-width="2"/>
    </g>
    <rect x="239" y="447" width="120" height="16" fill="#76aeff" stroke="#000" stroke-width="2"/>
    <g>
      <rect x="325" y="531" width="24" height="32" fill="#fff" stroke="#000" stroke-width="2"/>
      <rect x="325" y="551" width="24" height="12" fill="#fff" stroke="#000" stroke-width="2"/>
      <rect x="323" y="563" width="28" height="4" fill="#76aeff" stroke="#000" stroke-width="2"/>
    </g>
    <g>
      <rect x="249" y="531" width="24" height="32" fill="#fff" stroke="#000" stroke-width="2"/>
      <rect x="249" y="551" width="24" height="12" fill="#fff" stroke="#000" stroke-width="2"/>
      <rect x="247" y="563" width="28" height="4" fill="#76aeff" stroke="#000" stroke-width="2"/>
    </g>
    <g>
      <rect x="287" y="531" width="24" height="32" fill="#fff" stroke="#000" stroke-width="2"/>
      <rect x="287" y="551" width="24" height="12" fill="#fff" stroke="#000" stroke-width="2"/>
      <rect x="285" y="563" width="28" height="4" fill="#76aeff" stroke="#000" stroke-width="2"/>
    </g>
    <g>
      <rect x="325" y="479" width="24" height="32" fill="#fff" stroke="#000" stroke-width="2"/>
      <rect x="325" y="499" width="24" height="12" fill="#fff" stroke="#000" stroke-width="2"/>
      <rect x="323" y="511" width="28" height="4" fill="#76aeff" stroke="#000" stroke-width="2"/>
    </g>
    <g>
      <rect x="249" y="479" width="24" height="32" fill="#fff" stroke="#000" stroke-width="2"/>
      <rect x="249" y="499" width="24" height="12" fill="#fff" stroke="#000" stroke-width="2"/>
      <rect x="247" y="511" width="28" height="4" fill="#76aeff" stroke="#000" stroke-width="2"/>
    </g>
    <g>
      <rect x="287" y="479" width="24" height="32" fill="#fff" stroke="#000" stroke-width="2"/>
      <rect x="287" y="499" width="24" height="12" fill="#fff" stroke="#000" stroke-width="2"/>
      <rect x="285" y="511" width="28" height="4" fill="#76aeff" stroke="#000" stroke-width="2"/>
    </g>
  </g>
  <g>
    <path d="M576,146c0,35.35-37,77-64,77s-64-41.65-64-77a64,64,0,0,1,128,0Z" fill="#76aeff" stroke="#000" stroke-width="2"/>
    <path d="M544,146c0,35.35-25,77-32,77-8,0-32-41.65-32-77s14.33-64,32-64S544,110.65,544,146Z" fill="#76aeff" stroke="#000" stroke-width="2"/>
    <rect x="492" y="237" width="40" height="32" rx="2" ry="2" fill="#76aeff" stroke="#000" stroke-linecap="round" stroke-linejoin="round" stroke-width="2"/>
    <line x1="455" y1="175" x2="569" y2="175" fill="none" stroke="#000" stroke-linecap="round" stroke-linejoin="round" stroke-width="2"/>
    <line x1="520" y1="237" x2="540" y2="175" fill="none" stroke="#000" stroke-linecap="round" stroke-linejoin="round" stroke-width="2"/>
    <line x1="528" y1="237" x2="569" y2="175" fill="none" stroke="#000" stroke-linecap="round" stroke-linejoin="round" stroke-width="2"/>
    <line x1="496" y1="237" x2="455" y2="175" fill="none" stroke="#000" stroke-linecap="round" stroke-linejoin="round" stroke-width="2"/>
    <line x1="504" y1="237" x2="485" y2="175" fill="none" stroke="#000" stroke-linecap="round" stroke-linejoin="round" stroke-width="2"/>
    <line x1="492" y1="261" x2="532" y2="261" fill="none" stroke="#000" stroke-width="2"/>
  </g>
  <g>
    <g>
      <rect x="79" y="559" width="160" height="80" fill="#adcfff" stroke="#000" stroke-width="2"/>
      <g>
        <rect x="95" y="583" width="32" height="56" fill="#76aeff" stroke="#000" stroke-width="2"/>
        <rect x="100" y="589" width="8" height="16" fill="none" stroke="#0c70fe" stroke-width="2"/>
        <rect x="114" y="589" width="8" height="16" fill="none" stroke="#0c70fe" stroke-width="2"/>
        <rect x="100" y="613" width="8" height="20" fill="none" stroke="#0c70fe" stroke-width="2"/>
        <rect x="114" y="613" width="8" height="20" fill="none" stroke="#0c70fe" stroke-width="2"/>
      </g>
      <rect x="143" y="575" width="80" height="64" fill="#fff" stroke="#000" stroke-width="2"/>
      <rect x="79" y="543" width="160" height="16" fill="#76aeff" stroke="#000" stroke-width="2"/>
    </g>
    <g>
      <line x1="151" y1="631" x2="215" y2="631" fill="none" stroke="#000" stroke-width="2"/>
      <line x1="151" y1="623" x2="215" y2="623" fill="none" stroke="#000" stroke-width="2"/>
      <line x1="151" y1="615" x2="215" y2="615" fill="none" stroke="#000" stroke-width="2"/>
      <line x1="151" y1="607" x2="215" y2="607" fill="none" stroke="#000" stroke-width="2"/>
      <line x1="151" y1="583" x2="215" y2="583" fill="none" stroke="#000" stroke-width="2"/>
      <line x1="151" y1="591" x2="215" y2="591" fill="none" stroke="#000" stroke-width="2"/>
      <line x1="151" y1="599" x2="215" y2="599" fill="none" stroke="#000" stroke-width="2"/>
    </g>
  </g>
</svg>
