<svg id="Layer_1" data-name="Layer 1" xmlns="http://www.w3.org/2000/svg" xmlns:xlink="http://www.w3.org/1999/xlink" width="640" height="640" viewBox="0 0 640 640">
  <defs>
    <clipPath id="clip-path">
      <rect x="-915" y="-633" width="1619" height="336" fill="none"/>
    </clipPath>
  </defs>
  <title>hero-left</title>
  <g clip-path="url(#clip-path)">
    <image width="1600" height="1200" transform="translate(-896 -1100)" xlink:href="../../Desktop/att1.png"/>
  </g>
  <g>
    <rect x="1" y="399" width="160" height="240" fill="#adcfff" stroke="#000" stroke-width="2"/>
    <rect x="1" y="383" width="160" height="16" fill="#76aeff" stroke="#000" stroke-width="2"/>
    <rect x="1" y="375" width="160" height="8" fill="#76aeff" stroke="#000" stroke-width="2"/>
    <g>
      <g>
        <rect x="81" y="583" width="32" height="56" fill="#76aeff" stroke="#000" stroke-width="2"/>
        <rect x="86" y="589" width="8" height="16" fill="none" stroke="#0c70fe" stroke-width="2"/>
        <rect x="100" y="589" width="8" height="16" fill="none" stroke="#0c70fe" stroke-width="2"/>
        <rect x="86" y="613" width="8" height="20" fill="none" stroke="#0c70fe" stroke-width="2"/>
        <rect x="100" y="613" width="8" height="20" fill="none" stroke="#0c70fe" stroke-width="2"/>
      </g>
      <g>
        <rect x="49" y="583" width="32" height="56" fill="#76aeff" stroke="#000" stroke-width="2"/>
        <rect x="54" y="589" width="8" height="16" fill="none" stroke="#0c70fe" stroke-width="2"/>
        <rect x="68" y="589" width="8" height="16" fill="none" stroke="#0c70fe" stroke-width="2"/>
        <rect x="54" y="613" width="8" height="20" fill="none" stroke="#0c70fe" stroke-width="2"/>
        <rect x="68" y="613" width="8" height="20" fill="none" stroke="#0c70fe" stroke-width="2"/>
      </g>
    </g>
    <g>
      <g>
        <rect x="123" y="531" width="24" height="32" fill="#fff" stroke="#000" stroke-width="2"/>
        <rect x="123" y="551" width="24" height="12" fill="#fff" stroke="#000" stroke-width="2"/>
        <rect x="121" y="563" width="28" height="4" fill="#76aeff" stroke="#000" stroke-width="2"/>
      </g>
      <g>
        <rect x="87" y="531" width="24" height="32" fill="#fff" stroke="#000" stroke-width="2"/>
        <rect x="87" y="551" width="24" height="12" fill="#fff" stroke="#000" stroke-width="2"/>
        <rect x="85" y="563" width="28" height="4" fill="#76aeff" stroke="#000" stroke-width="2"/>
      </g>
      <g>
        <rect x="51" y="531" width="24" height="32" fill="#fff" stroke="#000" stroke-width="2"/>
        <rect x="51" y="551" width="24" height="12" fill="#fff" stroke="#000" stroke-width="2"/>
        <rect x="49" y="563" width="28" height="4" fill="#76aeff" stroke="#000" stroke-width="2"/>
      </g>
      <g>
        <rect x="16" y="531" width="24" height="32" fill="#fff" stroke="#000" stroke-width="2"/>
        <rect x="16" y="551" width="24" height="12" fill="#fff" stroke="#000" stroke-width="2"/>
        <rect x="14" y="563" width="28" height="4" fill="#76aeff" stroke="#000" stroke-width="2"/>
      </g>
    </g>
    <g>
      <g>
        <rect x="123" y="479" width="24" height="32" fill="#fff" stroke="#000" stroke-width="2"/>
        <rect x="123" y="499" width="24" height="12" fill="#fff" stroke="#000" stroke-width="2"/>
        <rect x="121" y="511" width="28" height="4" fill="#76aeff" stroke="#000" stroke-width="2"/>
      </g>
      <g>
        <rect x="87" y="479" width="24" height="32" fill="#fff" stroke="#000" stroke-width="2"/>
        <rect x="87" y="499" width="24" height="12" fill="#fff" stroke="#000" stroke-width="2"/>
        <rect x="85" y="511" width="28" height="4" fill="#76aeff" stroke="#000" stroke-width="2"/>
      </g>
      <g>
        <rect x="51" y="479" width="24" height="32" fill="#fff" stroke="#000" stroke-width="2"/>
        <rect x="51" y="499" width="24" height="12" fill="#fff" stroke="#000" stroke-width="2"/>
        <rect x="49" y="511" width="28" height="4" fill="#76aeff" stroke="#000" stroke-width="2"/>
      </g>
      <g>
        <rect x="16" y="479" width="24" height="32" fill="#fff" stroke="#000" stroke-width="2"/>
        <rect x="16" y="499" width="24" height="12" fill="#fff" stroke="#000" stroke-width="2"/>
        <rect x="14" y="511" width="28" height="4" fill="#76aeff" stroke="#000" stroke-width="2"/>
      </g>
    </g>
    <g>
      <g>
        <rect x="123" y="427" width="24" height="32" fill="#fff" stroke="#000" stroke-width="2"/>
        <rect x="123" y="447" width="24" height="12" fill="#fff" stroke="#000" stroke-width="2"/>
        <rect x="121" y="459" width="28" height="4" fill="#76aeff" stroke="#000" stroke-width="2"/>
      </g>
      <g>
        <rect x="87" y="427" width="24" height="32" fill="#fff" stroke="#000" stroke-width="2"/>
        <rect x="87" y="447" width="24" height="12" fill="#fff" stroke="#000" stroke-width="2"/>
        <rect x="85" y="459" width="28" height="4" fill="#76aeff" stroke="#000" stroke-width="2"/>
      </g>
      <g>
        <rect x="51" y="427" width="24" height="32" fill="#fff" stroke="#000" stroke-width="2"/>
        <rect x="51" y="447" width="24" height="12" fill="#fff" stroke="#000" stroke-width="2"/>
        <rect x="49" y="459" width="28" height="4" fill="#76aeff" stroke="#000" stroke-width="2"/>
      </g>
      <g>
        <rect x="16" y="427" width="24" height="32" fill="#fff" stroke="#000" stroke-width="2"/>
        <rect x="16" y="447" width="24" height="12" fill="#fff" stroke="#000" stroke-width="2"/>
        <rect x="14" y="459" width="28" height="4" fill="#76aeff" stroke="#000" stroke-width="2"/>
      </g>
    </g>
  </g>
  <g>
    <rect x="561" y="623" width="32" height="16" fill="#76aeff" stroke="#000" stroke-width="2"/>
    <g>
      <circle cx="577" cy="586" r="12" fill="#adcfff" stroke="#000" stroke-width="2"/>
      <circle cx="582" cy="609" r="4" fill="#adcfff" stroke="#000" stroke-width="2"/>
      <circle cx="572" cy="613" r="4" transform="translate(-92.47 1124.31) rotate(-84.56)" fill="#adcfff" stroke="#000" stroke-width="2"/>
      <path d="M577,598v24" fill="#adcfff" stroke="#000" stroke-width="2"/>
    </g>
  </g>
  <g>
    <rect x="161" y="511" width="120" height="128" fill="#adcfff" stroke="#000" stroke-width="2"/>
    <g>
      <rect x="173" y="583" width="32" height="56" fill="#76aeff" stroke="#000" stroke-width="2"/>
      <rect x="178" y="589" width="8" height="16" fill="none" stroke="#0c70fe" stroke-width="2"/>
      <rect x="192" y="589" width="8" height="16" fill="none" stroke="#0c70fe" stroke-width="2"/>
      <rect x="178" y="613" width="8" height="20" fill="none" stroke="#0c70fe" stroke-width="2"/>
      <rect x="192" y="613" width="8" height="20" fill="none" stroke="#0c70fe" stroke-width="2"/>
    </g>
    <g>
      <rect x="217" y="606" width="48" height="16" fill="#fff" stroke="#000" stroke-width="2"/>
      <path d="M217,606a24,24,0,0,1,48,0Z" fill="#fff" stroke="#000" stroke-width="2"/>
      <path d="M249,622V602a8,8,0,0,0-16,0v20Z" fill="#fff" stroke="#000" stroke-width="2"/>
      <rect x="213" y="622" width="56" height="4" fill="#76aeff" stroke="#000" stroke-width="2"/>
    </g>
    <g>
      <path d="M189,534v32H173V534a8,8,0,0,1,16,0Z" fill="#fff" stroke="#000" stroke-width="2"/>
      <rect x="173" y="554" width="16" height="12" fill="#fff" stroke="#000" stroke-width="2"/>
      <rect x="171" y="566" width="20" height="4" fill="#76aeff" stroke="#000" stroke-width="2"/>
    </g>
    <g>
      <path d="M215,534v32H199V534a8,8,0,0,1,16,0Z" fill="#fff" stroke="#000" stroke-width="2"/>
      <rect x="199" y="554" width="16" height="12" fill="#fff" stroke="#000" stroke-width="2"/>
      <rect x="197" y="566" width="20" height="4" fill="#76aeff" stroke="#000" stroke-width="2"/>
    </g>
    <g>
      <path d="M241,534v32H225V534a8,8,0,0,1,16,0Z" fill="#fff" stroke="#000" stroke-width="2"/>
      <rect x="225" y="554" width="16" height="12" fill="#fff" stroke="#000" stroke-width="2"/>
      <rect x="223" y="566" width="20" height="4" fill="#76aeff" stroke="#000" stroke-width="2"/>
    </g>
    <g>
      <path d="M267,534v32H251V534a8,8,0,0,1,16,0Z" fill="#fff" stroke="#000" stroke-width="2"/>
      <rect x="251" y="554" width="16" height="12" fill="#fff" stroke="#000" stroke-width="2"/>
      <rect x="249" y="566" width="20" height="4" fill="#76aeff" stroke="#000" stroke-width="2"/>
    </g>
    <rect x="161" y="495" width="120" height="16" fill="#76aeff" stroke="#000" stroke-width="2"/>
  </g>
  <g>
    <rect x="281" y="463" width="120" height="176" fill="#adcfff" stroke="#000" stroke-width="2"/>
    <g>
      <rect x="325" y="583" width="32" height="56" fill="#76aeff" stroke="#000" stroke-width="2"/>
      <rect x="330" y="589" width="8" height="16" fill="none" stroke="#0c70fe" stroke-width="2"/>
      <rect x="344" y="589" width="8" height="16" fill="none" stroke="#0c70fe" stroke-width="2"/>
      <rect x="330" y="613" width="8" height="20" fill="none" stroke="#0c70fe" stroke-width="2"/>
      <rect x="344" y="613" width="8" height="20" fill="none" stroke="#0c70fe" stroke-width="2"/>
    </g>
    <g>
      <path d="M311,590v32H295V590a8,8,0,0,1,16,0Z" fill="#fff" stroke="#000" stroke-width="2"/>
      <rect x="295" y="610" width="16" height="12" fill="#fff" stroke="#000" stroke-width="2"/>
      <rect x="293" y="622" width="20" height="4" fill="#76aeff" stroke="#000" stroke-width="2"/>
    </g>
    <g>
      <path d="M387,591v32H371V591a8,8,0,0,1,16,0Z" fill="#fff" stroke="#000" stroke-width="2"/>
      <rect x="371" y="611" width="16" height="12" fill="#fff" stroke="#000" stroke-width="2"/>
      <rect x="369" y="623" width="20" height="4" fill="#76aeff" stroke="#000" stroke-width="2"/>
    </g>
    <rect x="281" y="447" width="120" height="16" fill="#76aeff" stroke="#000" stroke-width="2"/>
    <g>
      <rect x="367" y="531" width="24" height="32" fill="#fff" stroke="#000" stroke-width="2"/>
      <rect x="367" y="551" width="24" height="12" fill="#fff" stroke="#000" stroke-width="2"/>
      <rect x="365" y="563" width="28" height="4" fill="#76aeff" stroke="#000" stroke-width="2"/>
    </g>
    <g>
      <rect x="291" y="531" width="24" height="32" fill="#fff" stroke="#000" stroke-width="2"/>
      <rect x="291" y="551" width="24" height="12" fill="#fff" stroke="#000" stroke-width="2"/>
      <rect x="289" y="563" width="28" height="4" fill="#76aeff" stroke="#000" stroke-width="2"/>
    </g>
    <g>
      <rect x="329" y="531" width="24" height="32" fill="#fff" stroke="#000" stroke-width="2"/>
      <rect x="329" y="551" width="24" height="12" fill="#fff" stroke="#000" stroke-width="2"/>
      <rect x="327" y="563" width="28" height="4" fill="#76aeff" stroke="#000" stroke-width="2"/>
    </g>
    <g>
      <rect x="367" y="479" width="24" height="32" fill="#fff" stroke="#000" stroke-width="2"/>
      <rect x="367" y="499" width="24" height="12" fill="#fff" stroke="#000" stroke-width="2"/>
      <rect x="365" y="511" width="28" height="4" fill="#76aeff" stroke="#000" stroke-width="2"/>
    </g>
    <g>
      <rect x="291" y="479" width="24" height="32" fill="#fff" stroke="#000" stroke-width="2"/>
      <rect x="291" y="499" width="24" height="12" fill="#fff" stroke="#000" stroke-width="2"/>
      <rect x="289" y="511" width="28" height="4" fill="#76aeff" stroke="#000" stroke-width="2"/>
    </g>
    <g>
      <rect x="329" y="479" width="24" height="32" fill="#fff" stroke="#000" stroke-width="2"/>
      <rect x="329" y="499" width="24" height="12" fill="#fff" stroke="#000" stroke-width="2"/>
      <rect x="327" y="511" width="28" height="4" fill="#76aeff" stroke="#000" stroke-width="2"/>
    </g>
  </g>
  <g>
    <g>
      <rect x="401" y="559" width="160" height="80" fill="#adcfff" stroke="#000" stroke-width="2"/>
      <g>
        <rect x="417" y="583" width="32" height="56" fill="#76aeff" stroke="#000" stroke-width="2"/>
        <rect x="422" y="589" width="8" height="16" fill="none" stroke="#0c70fe" stroke-width="2"/>
        <rect x="436" y="589" width="8" height="16" fill="none" stroke="#0c70fe" stroke-width="2"/>
        <rect x="422" y="613" width="8" height="20" fill="none" stroke="#0c70fe" stroke-width="2"/>
        <rect x="436" y="613" width="8" height="20" fill="none" stroke="#0c70fe" stroke-width="2"/>
      </g>
      <rect x="465" y="575" width="80" height="64" fill="#fff" stroke="#000" stroke-width="2"/>
      <rect x="401" y="543" width="160" height="16" fill="#76aeff" stroke="#000" stroke-width="2"/>
    </g>
    <g>
      <line x1="473" y1="631" x2="537" y2="631" fill="none" stroke="#000" stroke-width="2"/>
      <line x1="473" y1="623" x2="537" y2="623" fill="none" stroke="#000" stroke-width="2"/>
      <line x1="473" y1="615" x2="537" y2="615" fill="none" stroke="#000" stroke-width="2"/>
      <line x1="473" y1="607" x2="537" y2="607" fill="none" stroke="#000" stroke-width="2"/>
      <line x1="473" y1="583" x2="537" y2="583" fill="none" stroke="#000" stroke-width="2"/>
      <line x1="473" y1="591" x2="537" y2="591" fill="none" stroke="#000" stroke-width="2"/>
      <line x1="473" y1="599" x2="537" y2="599" fill="none" stroke="#000" stroke-width="2"/>
    </g>
  </g>
</svg>
