<svg id="Layer_1" data-name="Layer 1" xmlns="http://www.w3.org/2000/svg" width="320" height="320" viewBox="0 0 320 320">
  <title>tile</title>
  <g>
    <rect x="8" y="4" width="16" height="8" fill="#8c29c8"/>
    <circle cx="8" cy="8" r="4" fill="#8c29c8"/>
    <circle cx="24" cy="8" r="4" fill="#8c29c8"/>
  </g>
  <g>
    <rect x="-8" y="20" width="32" height="8" transform="translate(32 16) rotate(90)" fill="#8c29c8"/>
    <circle cx="8" cy="8" r="4" fill="#8c29c8"/>
    <circle cx="8" cy="40" r="4" fill="#8c29c8"/>
  </g>
  <g>
    <rect x="8" y="36" width="64" height="8" fill="#8c29c8"/>
    <circle cx="8" cy="40" r="4" fill="#8c29c8"/>
    <circle cx="72" cy="40" r="4" fill="#8c29c8"/>
  </g>
  <g>
    <path d="M40,0a8,8,0,1,0,8,8A8,8,0,0,0,40,0Z" fill="#1eb432"/>
    <path d="M44.31,6.45l-5.09,6.1L35.76,9.09a1.14,1.14,0,1,1,1.62-1.62l1.69,1.69L42.55,5a1.14,1.14,0,0,1,1.76,1.46Z" fill="#fff"/>
  </g>
  <g>
    <path d="M86.89,33.78a1.17,1.17,0,0,1,2.21,0l2.21,3.78,2.21,3.78,2.21,3.78c.61,1,.11,1.89-1.11,1.89H81.37c-1.22,0-1.71-.85-1.11-1.89l2.21-3.78,2.21-3.78Z" fill="#ffb429"/>
    <path d="M88,42a1,1,0,0,1-1-1V38a1,1,0,0,1,2,0v3A1,1,0,0,1,88,42Z" fill="#fff"/>
    <path d="M88,45a1.05,1.05,0,0,1-.71-.29,1.16,1.16,0,0,1-.21-.33A1,1,0,0,1,87,44a1.32,1.32,0,0,1,0-.2.64.64,0,0,1,.06-.18.77.77,0,0,1,.09-.18l.12-.15a1,1,0,0,1,1.09-.21,1.16,1.16,0,0,1,.33.21A1.05,1.05,0,0,1,89,44a.84.84,0,0,1-.08.38.9.9,0,0,1-.54.54A.84.84,0,0,1,88,45Z" fill="#fff"/>
  </g>
  <g>
    <rect x="104" y="36" width="48" height="8" fill="#8c29c8"/>
    <circle cx="104" cy="40" r="4" fill="#8c29c8"/>
    <circle cx="152" cy="40" r="4" fill="#8c29c8"/>
  </g>
  <g>
    <rect x="124" y="64" width="56" height="8" transform="translate(220 -84) rotate(90)" fill="#8c29c8"/>
    <circle cx="152" cy="40" r="4" fill="#8c29c8"/>
    <circle cx="152" cy="96" r="4" fill="#8c29c8"/>
  </g>
  <g>
    <rect x="40" y="52" width="32" height="8" transform="translate(112 0) rotate(90)" fill="#8c29c8"/>
    <circle cx="56" cy="40" r="4" fill="#8c29c8"/>
    <circle cx="56" cy="72" r="4" fill="#8c29c8"/>
  </g>
  <g>
    <rect x="56" y="69" width="48" height="8" fill="#8c29c8"/>
    <circle cx="56" cy="73" r="4" fill="#8c29c8"/>
    <circle cx="104" cy="73" r="4" fill="#8c29c8"/>
  </g>
  <g>
    <rect x="72" y="101" width="64" height="8" transform="translate(209 1) rotate(90)" fill="#8c29c8"/>
    <circle cx="104" cy="73" r="4" fill="#8c29c8"/>
    <circle cx="104" cy="137" r="4" fill="#8c29c8"/>
  </g>
</svg>
