<?xml version="1.0" encoding="utf-8"?>
<svg xmlns="http://www.w3.org/2000/svg">
<symbol id="activity" viewBox="0 0 24 24"><path d="M22 12h-4l-3 9L9 3l-3 9H2"/>
</symbol>
<symbol id="airplay" viewBox="0 0 24 24"><path d="M5 17H4a2 2 0 0 1-2-2V5a2 2 0 0 1 2-2h16a2 2 0 0 1 2 2v10a2 2 0 0 1-2 2h-1"/><path d="M12 15l5 6H7l5-6z"/>
</symbol>
<symbol id="alert-circle" viewBox="0 0 24 24"><circle cx="12" cy="12" r="10"/><path d="M12 8v4m0 4"/>
</symbol>
<symbol id="alert-octagon" viewBox="0 0 24 24"><path d="M7.86 2h8.28L22 7.86v8.28L16.14 22H7.86L2 16.14V7.86L7.86 2zM12 8v4m0 4"/>
</symbol>
<symbol id="alert-triangle" viewBox="0 0 24 24"><path d="M10.29 3.86L1.82 18a2 2 0 0 0 1.71 3h16.94a2 2 0 0 0 1.71-3L13.71 3.86a2 2 0 0 0-3.42 0zM12 9v4m0 4"/>
</symbol>
<symbol id="align-center" viewBox="0 0 24 24"><path d="M18 10H6m15-4H3m18 8H3m15 4H6"/>
</symbol>
<symbol id="align-justify" viewBox="0 0 24 24"><path d="M21 10H3m18-4H3m18 8H3m18 4H3"/>
</symbol>
<symbol id="align-left" viewBox="0 0 24 24"><path d="M17 10H3m18-4H3m18 8H3m14 4H3"/>
</symbol>
<symbol id="align-right" viewBox="0 0 24 24"><path d="M21 10H7m14-4H3m18 8H3m18 4H7"/>
</symbol>
<symbol id="anchor" viewBox="0 0 24 24"><circle cx="12" cy="5" r="3"/><path d="M12 22V8m-7 4H2a10 10 0 0 0 20 0h-3"/>
</symbol>
<symbol id="aperture" viewBox="0 0 24 24"><circle cx="12" cy="12" r="10"/><path d="M14.31 8l5.74 9.94M9.69 8h11.48M7.38 12l5.74-9.94M9.69 16L3.95 6.06M14.31 16H2.83M16.62 12l-5.74 9.94"/>
</symbol>
<symbol id="arrow-down" viewBox="0 0 24 24"><path d="M20 12l-1.41-1.41L13 16.17V4h-2v12.17l-5.58-5.59L4 12l8 8 8-8z"/>
</symbol>
<symbol id="arrow-left" viewBox="0 0 24 24"><path d="M20 11H7.83l5.59-5.59L12 4l-8 8 8 8 1.41-1.41L7.83 13H20v-2z"/>
</symbol>
<symbol id="arrow-right" viewBox="0 0 24 24"><path d="M12 4l-1.41 1.41L16.17 11H4v2h12.17l-5.58 5.59L12 20l8-8z"/>
</symbol>
<symbol id="arrow-up" viewBox="0 0 24 24"><path d="M4 12l1.41 1.41L11 7.83V20h2V7.83l5.58 5.59L20 12l-8-8-8 8z"/>
</symbol>
<symbol id="at-sign" viewBox="0 0 24 24"><circle cx="12" cy="12" r="4"/><path d="M16 12v1a3 3 0 0 0 6 0v-1a10 10 0 1 0-3.92 7.94"/>
</symbol>
<symbol id="award" viewBox="0 0 24 24"><circle cx="12" cy="8" r="7"/><path d="M8.21 13.89L7 23l5-3 5 3-1.21-9.12"/>
</symbol>
<symbol id="bar-chart-2" viewBox="0 0 24 24"><path fill="none" stroke="inherit" stroke-linecap="round" stroke-linejoin="round" stroke-width="2" d="M10 3h4v18h-4zm8 5h4v13h-4zM2 13h4v8H2z"/>
</symbol>
<symbol id="bar-chart" viewBox="0 0 24 24"><path fill="none" stroke="inherit" stroke-linecap="round" stroke-linejoin="round" stroke-width="2" d="M18 3h4v18h-4zm-8 5h4v13h-4zm-8 5h4v8H2z"/>
</symbol>
<symbol id="battery-charging" viewBox="0 0 24 24"><path d="M5 18H3a2 2 0 0 1-2-2V8a2 2 0 0 1 2-2h3.19M15 6h2a2 2 0 0 1 2 2v8a2 2 0 0 1-2 2h-3.19" fill="none" stroke="inherit" stroke-linecap="round" stroke-miterlimit="10" stroke-width="2"/><path fill="none" stroke="inherit" stroke-linecap="round" stroke-linejoin="round" stroke-width="2" d="M23 13v-2M11 6l-4 6h6l-4 6"/>
</symbol>
<symbol id="battery" viewBox="0 0 24 24"><rect x="1" y="6" width="18" height="12" rx="2" ry="2"/><path d="M23 13v-2"/>
</symbol>
<symbol id="bell-off" viewBox="0 0 24 24"><path d="M8.56 2.9A7 7 0 0 1 19 9v4m-2 4H2a3 3 0 0 0 3-3V9a7 7 0 0 1 .78-3.22M13.73 21a2 2 0 0 1-3.46 0M1 1l22 22"/>
</symbol>
<symbol id="bell" viewBox="0 0 24 24"><path d="M22 17H2a3 3 0 0 0 3-3V9a7 7 0 0 1 14 0v5a3 3 0 0 0 3 3zm-8.27 4a2 2 0 0 1-3.46 0"/>
</symbol>
<symbol id="bluetooth" viewBox="0 0 24 24"><path d="M6.5 6.5l11 11L12 23V1l5.5 5.5-11 11"/>
</symbol>
<symbol id="book" viewBox="0 0 24 24"><path d="M4 19.5A2.5 2.5 0 0 1 6.5 17H20"/><path d="M6.5 2H20v20H6.5A2.5 2.5 0 0 1 4 19.5v-15A2.5 2.5 0 0 1 6.5 2z"/>
</symbol>
<symbol id="bookmark" viewBox="0 0 24 24"><path d="M19 21l-7-5-7 5V5a2 2 0 0 1 2-2h10a2 2 0 0 1 2 2z"/>
</symbol>
<symbol id="box" viewBox="0 0 24 24"><path d="M12.89 1.45l8 4A2 2 0 0 1 22 7.24v9.53a2 2 0 0 1-1.11 1.79l-8 4a2 2 0 0 1-1.79 0l-8-4a2 2 0 0 1-1.1-1.8V7.24a2 2 0 0 1 1.11-1.79l8-4a2 2 0 0 1 1.78 0z" fill="none" stroke="#0f0f0f" stroke-linecap="round" stroke-linejoin="round" stroke-width="2"/><path fill="none" stroke="#0f0f0f" stroke-linecap="round" stroke-linejoin="round" stroke-width="2" d="M2.32 6.16L12 11l9.68-4.84M12 22.76V11"/>
</symbol>
<symbol id="briefcase" viewBox="0 0 24 24"><rect x="2" y="7" width="20" height="14" rx="2" ry="2"/><path d="M16 21V5a2 2 0 0 0-2-2h-4a2 2 0 0 0-2 2v16"/>
</symbol>
<symbol id="calendar" viewBox="0 0 24 24"><rect x="3" y="4" width="18" height="18" rx="2" ry="2"/><path d="M16 2v4M8 2v4m-5 4h18"/>
</symbol>
<symbol id="camera-off" viewBox="0 0 24 24"><path d="M1 1l22 22M21 21H3a2 2 0 0 1-2-2V8a2 2 0 0 1 2-2h3m3-3h6l2 3h4a2 2 0 0 1 2 2v9.34m-7.72-2.06a4 4 0 1 1-5.56-5.56"/>
</symbol>
<symbol id="camera" viewBox="0 0 24 24"><path d="M23 19a2 2 0 0 1-2 2H3a2 2 0 0 1-2-2V8a2 2 0 0 1 2-2h4l2-3h6l2 3h4a2 2 0 0 1 2 2z"/><circle cx="12" cy="13" r="4"/>
</symbol>
<symbol id="cast" viewBox="0 0 24 24"><path d="M2 16.1A5 5 0 0 1 5.9 20M2 12.05A9 9 0 0 1 9.95 20M2 8V6a2 2 0 0 1 2-2h16a2 2 0 0 1 2 2v12a2 2 0 0 1-2 2h-6" fill="none" stroke="inherit" stroke-linecap="round" stroke-miterlimit="10" stroke-width="2"/>
</symbol>
<symbol id="check-circle" viewBox="0 0 24 24"><path d="M22 11.07V12a10 10 0 1 1-5.93-9.14"/><path d="M23 3L12 14l-3-3"/>
</symbol>
<symbol id="check-square" viewBox="0 0 24 24"><path d="M9 11l3 3L23 3"/><path d="M21 12v7a2 2 0 0 1-2 2H5a2 2 0 0 1-2-2V5a2 2 0 0 1 2-2h11"/>
</symbol>
<symbol id="check" viewBox="0 0 24 24"><path d="M20 6L9 17l-5-5"/>
</symbol>
<symbol id="chevron-double-down" viewBox="0 0 24.00 24.00"><path d="M16.586 5.586L18 7l-6 6-6-6 1.414-1.414L12 10.172l4.586-4.586zm0 6L18 13l-6 6-6-6 1.414-1.414L12 16.172l4.586-4.586z"/>
</symbol>
<symbol id="chevron-double-left" viewBox="0 0 24.00 24.00"><path d="M18.414 7.414L17 6l-6 6 6 6 1.414-1.414L13.828 12l4.586-4.586zm-6 0L11 6l-6 6 6 6 1.414-1.414L7.828 12l4.586-4.586z"/>
</symbol>
<symbol id="chevron-double-right" viewBox="0 0 24.00 24.00"><path d="M5.586 7.414L7 6l6 6-6 6-1.414-1.414L10.172 12 5.586 7.414zm6 0L13 6l6 6-6 6-1.414-1.414L16.172 12l-4.586-4.586z"/>
</symbol>
<symbol id="chevron-double-up" viewBox="0 0 24.00 24.00"><path d="M7.414 18.414L6 17l6-6 6 6-1.414 1.414L12 13.828l-4.586 4.586zm0-6L6 11l6-6 6 6-1.414 1.414L12 7.828l-4.586 4.586z"/>
</symbol>
<symbol id="chevron-down" viewBox="0 0 24 24"><path d="M7.41 7.84L12 12.42l4.59-4.58L18 9.25l-6 6-6-6z"/>
</symbol>
<symbol id="chevron-left" viewBox="0 0 24 24"><path d="M15.41 16.09l-4.58-4.59 4.58-4.59L14 5.5l-6 6 6 6z"/>
</symbol>
<symbol id="chevron-right" viewBox="0 0 24 24"><path d="M8.59 16.34l4.58-4.59-4.58-4.59L10 5.75l6 6-6 6z"/>
</symbol>
<symbol id="chevron-up" viewBox="0 0 24 24"><path d="M7.41 15.41L12 10.83l4.59 4.58L18 14l-6-6-6 6z"/>
</symbol>
<symbol id="circle" viewBox="0 0 24 24"><circle cx="12" cy="12" r="10"/>
</symbol>
<symbol id="clipboard" viewBox="0 0 24 24"><path d="M16 4h2a2 2 0 0 1 2 2v14a2 2 0 0 1-2 2H6a2 2 0 0 1-2-2V6a2 2 0 0 1 2-2h2"/><rect x="8" y="2" width="8" height="4" rx="1" ry="1"/>
</symbol>
<symbol id="clock" viewBox="0 0 24 24"><circle cx="12" cy="12" r="10"/><path d="M12 6v6l3 3"/>
</symbol>
<symbol id="cloud-drizzle" viewBox="0 0 24 24"><path fill="none" stroke="inherit" stroke-linecap="round" stroke-miterlimit="10" stroke-width="2" d="M8 19v2M8 13v2M16 19v2M16 13v2M12 21v2M12 15v2"/><path d="M20 16.58A5 5 0 0 0 18 7h-1.26A8 8 0 1 0 4 15.25" fill="none" stroke="inherit" stroke-linecap="round" stroke-linejoin="round" stroke-width="2"/>
</symbol>
<symbol id="cloud-lightning" viewBox="0 0 24 24"><path d="M19 16.9A5 5 0 0 0 18 7h-1.26a8 8 0 1 0-11.62 9" fill="none" stroke="inherit" stroke-linecap="round" stroke-linejoin="round" stroke-width="2"/><path fill="none" stroke="inherit" stroke-linecap="round" stroke-linejoin="round" stroke-width="2" d="M13 11l-4 6h6l-4 6"/>
</symbol>
<symbol id="cloud-off" viewBox="0 0 24 24"><path d="M22.61 16.95A5 5 0 0 0 18 10h-1.26a8 8 0 0 0-7.05-6M5 5a8 8 0 0 0 4 15h9a5 5 0 0 0 1.7-.3M1 1l22 22"/>
</symbol>
<symbol id="cloud-rain" viewBox="0 0 24 24"><path fill="none" stroke="inherit" stroke-linecap="round" stroke-miterlimit="10" stroke-width="2" d="M16 13v8M8 13v8M12 15v8"/><path d="M20 16.58A5 5 0 0 0 18 7h-1.26A8 8 0 1 0 4 15.25" fill="none" stroke="inherit" stroke-linecap="round" stroke-linejoin="round" stroke-width="2"/>
</symbol>
<symbol id="cloud-snow" viewBox="0 0 24 24"><path d="M20 17.58A5 5 0 0 0 18 8h-1.26A8 8 0 1 0 4 16.25M16 20" fill="none" stroke="inherit" stroke-linecap="round" stroke-linejoin="round" stroke-width="2"/>
</symbol>
<symbol id="cloud" viewBox="0 0 24 24"><path d="M18 10h-1.26A8 8 0 1 0 9 20h9a5 5 0 0 0 0-10z"/>
</symbol>
<symbol id="command" viewBox="0 0 24 24"><path d="M18 3a3 3 0 0 0-3 3v12a3 3 0 0 0 3 3 3 3 0 0 0 3-3 3 3 0 0 0-3-3H6a3 3 0 0 0-3 3 3 3 0 0 0 3 3 3 3 0 0 0 3-3V6a3 3 0 0 0-3-3 3 3 0 0 0-3 3 3 3 0 0 0 3 3h12a3 3 0 0 0 3-3 3 3 0 0 0-3-3z"/>
</symbol>
<symbol id="compass" viewBox="0 0 24 24"><circle cx="12" cy="12" r="10" fill="none" stroke="inherit" stroke-linecap="round" stroke-linejoin="round" stroke-width="2"/><path fill="none" stroke="inherit" stroke-linecap="round" stroke-linejoin="round" stroke-width="2" d="M16.24 7.76l-2.12 6.36-6.36 2.12 2.12-6.36 6.36-2.12z"/>
</symbol>
<symbol id="copy" viewBox="0 0 24 24"><rect x="9" y="2" width="13" height="13" rx="2" ry="2" fill="none" stroke="inherit" stroke-linecap="round" stroke-linejoin="round" stroke-width="2"/><path d="M9 9H4a2 2 0 0 0-2 2v9a2 2 0 0 0 2 2h9a2 2 0 0 0 2-2v-5" fill="none" stroke="inherit" stroke-linecap="round" stroke-linejoin="round" stroke-width="2"/>
</symbol>
<symbol id="cpu" viewBox="0 0 24 24"><rect x="4" y="4" width="16" height="16" rx="2" ry="2"/><path d="M9 9h6v6H9zm0-8v3m6-3v3M9 20v3m6-3v3m5-14h3m-3 5h3M1 9h3m-3 5h3"/>
</symbol>
<symbol id="crosshair" viewBox="0 0 24 24"><circle cx="12" cy="12" r="10"/><path d="M22 12h-4M6 12H2M12 6V2M12 22v-4"/>
</symbol>
<symbol id="delete" viewBox="0 0 24 24"><path d="M21 4H8l-7 8 7 8h13a2 2 0 0 0 2-2V6a2 2 0 0 0-2-2zm-3 5l-6 6m0-6l6 6"/>
</symbol>
<symbol id="disc" viewBox="0 0 24 24"><circle cx="12" cy="12" r="10"/><circle cx="12" cy="12" r="3"/>
</symbol>
<symbol id="download-cloud" viewBox="0 0 24 24"><path d="M8 17l4 4 4-4m-4-5v9"/><path d="M20.88 18.09A5 5 0 0 0 18 9h-1.26A8 8 0 1 0 3 16.29"/>
</symbol>
<symbol id="download" viewBox="0 0 24 24"><path d="M3 17v3a2 2 0 0 0 2 2h14a2 2 0 0 0 2-2v-3M8 12l4 4 4-4M12 2v14"/>
</symbol>
<symbol id="droplet" viewBox="0 0 24 24"><path d="M12 2.69l5.66 5.66a8 8 0 1 1-11.31 0z" fill="none" stroke="inherit" stroke-linejoin="round" stroke-width="2"/>
</symbol>
<symbol id="edit-2" viewBox="0 0 24 24"><path fill="none" stroke="inherit" stroke-linecap="round" stroke-linejoin="round" stroke-width="2" d="M16 3l5 5L8 21H3v-5L16 3z"/>
</symbol>
<symbol id="edit-3" viewBox="0 0 24 24"><path fill="none" stroke="inherit" stroke-linecap="round" stroke-linejoin="round" stroke-width="2" d="M14 2l4 4L7 17H3v-4L14 2zM3 22h18"/>
</symbol>
<symbol id="edit" viewBox="0 0 24 24"><path d="M20 14.66V20a2 2 0 0 1-2 2H4a2 2 0 0 1-2-2V6a2 2 0 0 1 2-2h5.34"/><path d="M18 2l4 4-10 10H8v-4L18 2z"/>
</symbol>
<symbol id="external-link" viewBox="0 0 24 24"><path d="M18 13v6a2 2 0 0 1-2 2H5a2 2 0 0 1-2-2V8a2 2 0 0 1 2-2h6m4-3h6v6m-11 5L21 3"/>
</symbol>
<symbol id="eye-off" viewBox="0 0 24 24"><path d="M17.94 17.94A10.07 10.07 0 0 1 12 20c-7 0-11-8-11-8a18.45 18.45 0 0 1 5.06-5.94M9.9 4.24A9.12 9.12 0 0 1 12 4c7 0 11 8 11 8a18.5 18.5 0 0 1-2.16 3.19m-6.72-1.07a3 3 0 1 1-4.24-4.24M1 1l22 22"/>
</symbol>
<symbol id="eye" viewBox="0 0 24 24"><path d="M1 12s4-8 11-8 11 8 11 8-4 8-11 8-11-8-11-8z"/><circle cx="12" cy="12" r="3"/>
</symbol>
<symbol id="facebook" viewBox="0 0 24.00 24.00"><path d="M19 3.998v3h-2a1 1 0 0 0-1 1v2h3v3h-3v7h-3v-7h-2v-3h2v-2.5a3.5 3.5 0 0 1 3.5-3.5m3.5-2H4a1.99 1.99 0 0 0-1.99 2l-.01 16a2 2 0 0 0 2 2h16c1.103 0 2-.896 2-2v-16a2 2 0 0 0-2-2z"/>
</symbol>
<symbol id="fast-forward" viewBox="0 0 24 24"><path d="M13 19l9-7-9-7v14zM2 19l9-7-9-7v14z"/>
</symbol>
<symbol id="feather" viewBox="0 0 24 24"><path d="M20.24 12.24a6 6 0 0 0-8.49-8.49L5 10.5V19h8.5zM16 8L2 22m15-7H9"/>
</symbol>
<symbol id="file" viewBox="0 0 24 24"><path d="M13 2H6a2 2 0 0 0-2 2v16a2 2 0 0 0 2 2h12a2 2 0 0 0 2-2V9z"/><path d="M13 2v7h7"/>
</symbol>
<symbol id="filter" viewBox="0 0 24 24"><path d="M22 3H2l8 9.46V19l4 2v-8.54L22 3z"/>
</symbol>
<symbol id="flag" viewBox="0 0 24 24"><path d="M4 15s1-1 4-1 5 2 8 2 4-1 4-1V3s-1 1-4 1-5-2-8-2-4 1-4 1zm0 7v-7"/>
</symbol>
<symbol id="folder" viewBox="0 0 24 24"><path d="M22 19a2 2 0 0 1-2 2H4a2 2 0 0 1-2-2V5a2 2 0 0 1 2-2h5l2 3h9a2 2 0 0 1 2 2z"/>
</symbol>
<symbol id="globe" viewBox="0 0 24 24"><circle cx="12" cy="12" r="10"/><path d="M2 12h20M12 2a15.3 15.3 0 0 1 4 10 15.3 15.3 0 0 1-4 10 15.3 15.3 0 0 1-4-10 15.3 15.3 0 0 1 4-10z"/>
</symbol>
<symbol id="grid" viewBox="0 0 24 24"><path fill="none" stroke="inherit" stroke-linecap="round" stroke-linejoin="round" stroke-width="2" d="M3 3h7v7H3zm11 0h7v7h-7zm0 11h7v7h-7zM3 14h7v7H3z"/>
</symbol>
<symbol id="hash" viewBox="0 0 24 24"><path d="M4 9h16M4 15h16M10 3L8 21m8-18l-2 18"/>
</symbol>
<symbol id="headphones" viewBox="0 0 24 24"><path d="M3 18v-6a9 9 0 0 1 18 0v6"/><path d="M21 19a2 2 0 0 1-2 2h-1a2 2 0 0 1-2-2v-3a2 2 0 0 1 2-2h3zM3 19a2 2 0 0 0 2 2h1a2 2 0 0 0 2-2v-3a2 2 0 0 0-2-2H3z"/>
</symbol>
<symbol id="heart" viewBox="0 0 24 24"><path d="M20.84 4.61a5.5 5.5 0 0 0-7.78 0L12 5.67l-1.06-1.06a5.5 5.5 0 0 0-7.78 7.78l1.06 1.06L12 21.23l7.78-7.78 1.06-1.06a5.5 5.5 0 0 0 0-7.78z"/>
</symbol>
<symbol id="home" viewBox="0 0 24 24"><path d="M3 9l9-7 9 7v11a2 2 0 0 1-2 2H5a2 2 0 0 1-2-2z"/><path d="M9 22V12h6v10"/>
</symbol>
<symbol id="image" viewBox="0 0 24 24"><rect x="3" y="3" width="18" height="18" rx="2" ry="2"/><circle cx="8.5" cy="8.5" r="1.5"/><path d="M21 15l-5-5L5 21"/>
</symbol>
<symbol id="inbox" viewBox="0 0 24 24"><path d="M22 13h-6l-2 3h-4l-2-3H2"/><path d="M5.47 5.19L2 13v5a2 2 0 0 0 2 2h16a2 2 0 0 0 2-2v-5l-3.47-7.81A2 2 0 0 0 16.7 4H7.3a2 2 0 0 0-1.83 1.19z"/>
</symbol>
<symbol id="info" viewBox="0 0 24 24"><circle cx="12" cy="12" r="10"/><path d="M12 16v-4m0-4"/>
</symbol>
<symbol id="instagram" viewBox="0 0 24.00 24.00"><path d="M7.8 2h8.4A5.8 5.8 0 0 1 22 7.8v8.4a5.8 5.8 0 0 1-5.8 5.8H7.8A5.8 5.8 0 0 1 2 16.2V7.8A5.8 5.8 0 0 1 7.8 2zm-.2 2A3.6 3.6 0 0 0 4 7.6v8.8A3.6 3.6 0 0 0 7.6 20h8.8a3.6 3.6 0 0 0 3.6-3.6V7.6A3.6 3.6 0 0 0 16.4 4H7.6zm9.65 1.5a1.25 1.25 0 1 1 0 2.5 1.25 1.25 0 0 1 0-2.5zM12 7a5 5 0 1 1 0 10 5 5 0 0 1 0-10zm0 2a3 3 0 1 0 0 6 3 3 0 0 0 0-6z"/>
</symbol>
<symbol id="layers" viewBox="0 0 24 24"><path d="M12 2L2 7l10 5 10-5-10-5zM2 17l10 5 10-5M2 12l10 5 10-5"/>
</symbol>
<symbol id="layout" viewBox="0 0 24 24"><rect x="3" y="3" width="18" height="18" rx="2" ry="2"/><path d="M3 9h18M9 21V9"/>
</symbol>
<symbol id="life-buoy" viewBox="0 0 24 24"><circle cx="12" cy="12" r="10"/><circle cx="12" cy="12" r="4"/><path d="M4.93 4.93l4.24 4.24m5.66 5.66l4.24 4.24m-4.24-9.9l4.24-4.24m-4.24 4.24l3.53-3.53M4.93 19.07l4.24-4.24"/>
</symbol>
<symbol id="link-2" viewBox="0 0 24 24"><path d="M15 7h3a5 5 0 0 1 5 5 5 5 0 0 1-5 5h-3m-6 0H6a5 5 0 0 1-5-5 5 5 0 0 1 5-5h3m-1 5h8" fill="none" stroke="#0f0f0f" stroke-linecap="round" stroke-linejoin="round" stroke-width="2"/>
</symbol>
<symbol id="link" viewBox="0 0 24 24"><path d="M14 16c-1.8 0-3.6-.8-4.8-2.4-.3-.4-.2-1.1.2-1.4.4-.3 1.1-.2 1.4.2 1.3 1.8 3.8 2.1 5.6.8.2-.1.3-.2.4-.4l3-3c1.5-1.6 1.5-4.1-.1-5.6s-4-1.5-5.6 0l-1.7 1.7c-.4.4-1 .4-1.4 0-.4-.4-.4-1 0-1.4l1.7-1.7c2.3-2.3 6-2.3 8.3 0 2.4 2.3 2.4 6.1.1 8.5l-3 3c-.2.2-.4.4-.7.6-.9.7-2.1 1.1-3.4 1.1z"/><path d="M7.1 22.9c-1.5 0-3-.6-4.2-1.7-2.4-2.3-2.4-6.1-.1-8.5l3-3c.2-.1.4-.3.6-.5 1.3-1 2.9-1.4 4.4-1.1 1.6.2 3 1.1 3.9 2.3.3.4.2 1.1-.2 1.4-.4.3-1.1.2-1.4-.2-.6-.9-1.6-1.4-2.6-1.6-1.1-.2-2.1.1-3 .8-.2.1-.3.2-.4.4l-3 3c-1.5 1.6-1.5 4.1.1 5.6s4 1.5 5.6 0l1.7-1.7c.4-.4 1-.4 1.4 0s.4 1 0 1.4l-1.7 1.7c-1.1 1.2-2.6 1.7-4.1 1.7z"/>
</symbol>
<symbol id="list" viewBox="0 0 24 24"><path fill="none" stroke="inherit" stroke-linecap="round" stroke-miterlimit="10" stroke-width="2" d="M8 6h13M8 12h13M8 18h13M3 18"/>
</symbol>
<symbol id="loader" viewBox="0 0 24 24"><path d="M12 2v4m0 12v4M4.93 4.93l2.83 2.83m8.48 8.48l2.83 2.83M2 12h4m12 0h4M4.93 19.07l2.83-2.83m8.48-8.48l2.83-2.83"/>
</symbol>
<symbol id="lock" viewBox="0 0 24 24"><rect x="3" y="11" width="18" height="11" rx="2" ry="2"/><path d="M7 11V7a5 5 0 0 1 10 0v4"/>
</symbol>
<symbol id="log-in" viewBox="0 0 24 24"><path d="M14 22h5a2 2 0 0 0 2-2V4a2 2 0 0 0-2-2h-5" fill="none" stroke="inherit" stroke-linecap="round" stroke-linejoin="round" stroke-width="2"/><path fill="none" stroke="inherit" stroke-linecap="round" stroke-linejoin="round" stroke-width="2" d="M11 16l4-4-4-4m4 4H3"/>
</symbol>
<symbol id="log-out" viewBox="0 0 24 24"><path d="M10 22H5a2 2 0 0 1-2-2V4a2 2 0 0 1 2-2h5m7 14l4-4-4-4m4 4H9" fill="none" stroke="inherit" stroke-linecap="round" stroke-linejoin="round" stroke-width="2"/>
</symbol>
<symbol id="mail" viewBox="0 0 24 24"><path d="M4 4h16c1.1 0 2 .9 2 2v12c0 1.1-.9 2-2 2H4c-1.1 0-2-.9-2-2V6c0-1.1.9-2 2-2z"/><path d="M22 6l-10 7L2 6"/>
</symbol>
<symbol id="map-pin" viewBox="0 0 24 24"><path d="M21 10c0 7-9 13-9 13s-9-6-9-13a9 9 0 0 1 18 0z"/><circle cx="12" cy="10" r="3"/>
</symbol>
<symbol id="map" viewBox="0 0 24 24"><path d="M1 6v16l7-4 8 4 7-4V2l-7 4-8-4-7 4zM8 2v16M16 6v16"/>
</symbol>
<symbol id="maximize-2" viewBox="0 0 24 24"><path d="M15 3h6v6M9 21H3v-6M21 3l-7 7M3 21l7-7"/>
</symbol>
<symbol id="maximize" viewBox="0 0 24 24"><path d="M8 3H5a2 2 0 0 0-2 2v3m18 0V5a2 2 0 0 0-2-2h-3m0 18h3a2 2 0 0 0 2-2v-3M3 16v3a2 2 0 0 0 2 2h3"/>
</symbol>
<symbol id="menu" viewBox="0 0 24 24"><path d="M21 11H3c-.6 0-1 .4-1 1s.4 1 1 1h18c.6 0 1-.4 1-1s-.4-1-1-1zM3 7h18c.6 0 1-.4 1-1s-.4-1-1-1H3c-.6 0-1 .4-1 1s.4 1 1 1zm18 10H3c-.6 0-1 .4-1 1s.4 1 1 1h18c.6 0 1-.4 1-1s-.4-1-1-1z"/>
</symbol>
<symbol id="message-circle" viewBox="0 0 24 24"><path d="M21 11.5a8.38 8.38 0 0 1-.9 3.8 8.5 8.5 0 0 1-7.6 4.7 8.38 8.38 0 0 1-3.8-.9L3 21l1.9-5.7a8.38 8.38 0 0 1-.9-3.8 8.5 8.5 0 0 1 4.7-7.6 8.38 8.38 0 0 1 3.8-.9h.5a8.48 8.48 0 0 1 8 8v.5z"/>
</symbol>
<symbol id="message-square" viewBox="0 0 24 24"><path d="M21 15a2 2 0 0 1-2 2H7l-4 4V5a2 2 0 0 1 2-2h14a2 2 0 0 1 2 2z"/>
</symbol>
<symbol id="mic-off" viewBox="0 0 24 24"><path d="M1 1l22 22M9 9v3a3 3 0 0 0 5.12 2.12M15 9.34V4a3 3 0 0 0-5.94-.6"/><path d="M17 16.95A7 7 0 0 1 5 12v-2m14 0v2a7 7 0 0 1-.11 1.23M12 19v4m-4 0h8"/>
</symbol>
<symbol id="mic" viewBox="0 0 24 24"><path d="M12 1a3 3 0 0 0-3 3v8a3 3 0 0 0 6 0V4a3 3 0 0 0-3-3z"/><path d="M19 10v2a7 7 0 0 1-14 0v-2m7 9v4m-4 0h8"/>
</symbol>
<symbol id="minimize-2" viewBox="0 0 24 24"><path d="M4 14h6v6m10-10h-6V4m0 6l7-7M3 21l7-7"/>
</symbol>
<symbol id="minimize" viewBox="0 0 24 24"><path d="M18 9h3c.6 0 1-.4 1-1s-.4-1-1-1h-3c-.6 0-1-.4-1-1V3c0-.6-.4-1-1-1s-1 .4-1 1v3c0 1.7 1.3 3 3 3zM6 15H3c-.6 0-1 .4-1 1s.4 1 1 1h3c.6 0 1 .4 1 1v3c0 .6.4 1 1 1s1-.4 1-1v-3c0-1.7-1.3-3-3-3zm15 0h-3c-1.7 0-3 1.3-3 3v3c0 .6.4 1 1 1s1-.4 1-1v-3c0-.6.4-1 1-1h3c.6 0 1-.4 1-1s-.4-1-1-1zM8 2c-.6 0-1 .4-1 1v3c0 .6-.4 1-1 1H3c-.6 0-1 .4-1 1s.4 1 1 1h3c1.7 0 3-1.3 3-3V3c0-.6-.4-1-1-1z"/>
</symbol>
<symbol id="minus-circle" viewBox="0 0 24 24"><circle cx="12" cy="12" r="10"/><path d="M8 12h8"/>
</symbol>
<symbol id="minus-square" viewBox="0 0 24 24"><rect x="3" y="3" width="18" height="18" rx="2" ry="2"/><path d="M8 12h8"/>
</symbol>
<symbol id="minus" viewBox="0 0 24 24"><path d="M5 12h14"/>
</symbol>
<symbol id="monitor" viewBox="0 0 24 24"><rect x="2" y="3" width="20" height="14" rx="2" ry="2"/><path d="M8 21h8m-4-4v4"/>
</symbol>
<symbol id="moon" viewBox="0 0 24 24"><path d="M21 12.79A9 9 0 1 1 11.21 3 7 7 0 0 0 21 12.79z"/>
</symbol>
<symbol id="more-horizontal" viewBox="0 0 24 24"><circle cx="12" cy="12" r="2"/><circle cx="20" cy="12" r="2"/><circle cx="4" cy="12" r="2"/>
</symbol>
<symbol id="more-vertical" viewBox="0 0 24 24"><circle cx="12" cy="12" r="2"/><circle cx="12" cy="4" r="2"/><circle cx="12" cy="20" r="2"/>
</symbol>
<symbol id="move" viewBox="0 0 24 24"><path d="M5 9l-3 3 3 3M9 5l3-3 3 3m0 14l-3 3-3-3M19 9l3 3-3 3M2 12h20M12 2v20"/>
</symbol>
<symbol id="music" viewBox="0 0 24 24"><path d="M9 17H5a2 2 0 0 0-2 2 2 2 0 0 0 2 2h2a2 2 0 0 0 2-2zm12-2h-4a2 2 0 0 0-2 2 2 2 0 0 0 2 2h2a2 2 0 0 0 2-2z"/><path d="M9 17V5l12-2v12"/>
</symbol>
<symbol id="navigation-2" viewBox="0 0 24 24"><path fill="none" stroke="inherit" stroke-linecap="round" stroke-linejoin="round" stroke-width="2" d="M12 2l7 19-7-4-7 4 7-19z"/>
</symbol>
<symbol id="navigation" viewBox="0 0 24 24"><path fill="none" stroke="inherit" stroke-linejoin="round" stroke-width="2" d="M3 11l19-9-9 19-2-8-8-2z"/>
</symbol>
<symbol id="octagon" viewBox="0 0 24 24"><path d="M7.86 2h8.28L22 7.86v8.28L16.14 22H7.86L2 16.14V7.86L7.86 2z"/>
</symbol>
<symbol id="package" viewBox="0 0 24 24"><path d="M12.89 1.45l8 4A2 2 0 0 1 22 7.24v9.53a2 2 0 0 1-1.11 1.79l-8 4a2 2 0 0 1-1.79 0l-8-4a2 2 0 0 1-1.1-1.8V7.24a2 2 0 0 1 1.11-1.79l8-4a2 2 0 0 1 1.78 0z" fill="none" stroke="#0f0f0f" stroke-linecap="round" stroke-linejoin="round" stroke-width="2"/><path fill="none" stroke="#0f0f0f" stroke-linecap="round" stroke-linejoin="round" stroke-width="2" d="M2.32 6.16L12 11l9.68-4.84M12 22.76V11M7 3.5l10 5"/>
</symbol>
<symbol id="pause" viewBox="0 0 24 24"><path fill="none" stroke="inherit" stroke-linecap="round" stroke-linejoin="round" stroke-width="2" d="M6 4h4v16H6zM14 4h4v16h-4z"/>
</symbol>
<symbol id="phone-call" viewBox="0 0 24 24"><path d="M15.05 5A5 5 0 0 1 19 8.95M15.05 1A9 9 0 0 1 23 8.94m-1 7.98v3a2 2 0 0 1-2.18 2 19.79 19.79 0 0 1-8.63-3.07 19.5 19.5 0 0 1-6-6 19.79 19.79 0 0 1-3.07-8.67A2 2 0 0 1 4.11 2h3a2 2 0 0 1 2 1.72 12.84 12.84 0 0 0 .7 2.81 2 2 0 0 1-.45 2.11L8.09 9.91a16 16 0 0 0 6 6l1.27-1.27a2 2 0 0 1 2.11-.45 12.84 12.84 0 0 0 2.81.7A2 2 0 0 1 22 16.92z"/>
</symbol>
<symbol id="phone-forwarded" viewBox="0 0 24 24"><path d="M19 1l4 4-4 4M15 5h8M22 16.92v3a2 2 0 0 1-2.18 2 19.79 19.79 0 0 1-8.63-3.07 19.5 19.5 0 0 1-6-6 19.79 19.79 0 0 1-3.07-8.67A2 2 0 0 1 4.11 2h3a2 2 0 0 1 2 1.72 12.84 12.84 0 0 0 .7 2.81 2 2 0 0 1-.45 2.11L8.09 9.91a16 16 0 0 0 6 6l1.27-1.27a2 2 0 0 1 2.11-.45 12.84 12.84 0 0 0 2.81.7A2 2 0 0 1 22 16.92z"/>
</symbol>
<symbol id="phone-incoming" viewBox="0 0 24 24"><path d="M16 2v6h6M23 1l-7 7M22 16.92v3a2 2 0 0 1-2.18 2 19.79 19.79 0 0 1-8.63-3.07 19.5 19.5 0 0 1-6-6 19.79 19.79 0 0 1-3.07-8.67A2 2 0 0 1 4.11 2h3a2 2 0 0 1 2 1.72 12.84 12.84 0 0 0 .7 2.81 2 2 0 0 1-.45 2.11L8.09 9.91a16 16 0 0 0 6 6l1.27-1.27a2 2 0 0 1 2.11-.45 12.84 12.84 0 0 0 2.81.7A2 2 0 0 1 22 16.92z"/>
</symbol>
<symbol id="phone-missed" viewBox="0 0 24 24"><path d="M23 1l-6 6M17 1l6 6M22 16.92v3a2 2 0 0 1-2.18 2 19.79 19.79 0 0 1-8.63-3.07 19.5 19.5 0 0 1-6-6 19.79 19.79 0 0 1-3.07-8.67A2 2 0 0 1 4.11 2h3a2 2 0 0 1 2 1.72 12.84 12.84 0 0 0 .7 2.81 2 2 0 0 1-.45 2.11L8.09 9.91a16 16 0 0 0 6 6l1.27-1.27a2 2 0 0 1 2.11-.45 12.84 12.84 0 0 0 2.81.7A2 2 0 0 1 22 16.92z"/>
</symbol>
<symbol id="phone-off" viewBox="0 0 24 24"><path d="M10.68 13.31a16 16 0 0 0 3.41 2.6l1.27-1.27a2 2 0 0 1 2.11-.45 12.84 12.84 0 0 0 2.81.7 2 2 0 0 1 1.72 2v3a2 2 0 0 1-2.18 2 19.79 19.79 0 0 1-8.63-3.07 19.42 19.42 0 0 1-3.33-2.67m-2.67-3.34a19.79 19.79 0 0 1-3.07-8.63A2 2 0 0 1 4.11 2h3a2 2 0 0 1 2 1.72 12.84 12.84 0 0 0 .7 2.81 2 2 0 0 1-.45 2.11L8.09 9.91M23 1L1 23"/>
</symbol>
<symbol id="phone-outgoing" viewBox="0 0 24 24"><path d="M23 7V1h-6M16 8l7-7M22 16.92v3a2 2 0 0 1-2.18 2 19.79 19.79 0 0 1-8.63-3.07 19.5 19.5 0 0 1-6-6 19.79 19.79 0 0 1-3.07-8.67A2 2 0 0 1 4.11 2h3a2 2 0 0 1 2 1.72 12.84 12.84 0 0 0 .7 2.81 2 2 0 0 1-.45 2.11L8.09 9.91a16 16 0 0 0 6 6l1.27-1.27a2 2 0 0 1 2.11-.45 12.84 12.84 0 0 0 2.81.7A2 2 0 0 1 22 16.92z"/>
</symbol>
<symbol id="phone" viewBox="0 0 24 24"><path d="M22 16.92v3a2 2 0 0 1-2.18 2 19.79 19.79 0 0 1-8.63-3.07 19.5 19.5 0 0 1-6-6 19.79 19.79 0 0 1-3.07-8.67A2 2 0 0 1 4.11 2h3a2 2 0 0 1 2 1.72 12.84 12.84 0 0 0 .7 2.81 2 2 0 0 1-.45 2.11L8.09 9.91a16 16 0 0 0 6 6l1.27-1.27a2 2 0 0 1 2.11-.45 12.84 12.84 0 0 0 2.81.7A2 2 0 0 1 22 16.92z"/>
</symbol>
<symbol id="pie-chart" viewBox="0 0 24 24"><circle cx="12" cy="12" r="10"/><path d="M12 2v10h10"/>
</symbol>
<symbol id="play" viewBox="0 0 24 24"><path d="M5 3l14 9-14 9V3z"/>
</symbol>
<symbol id="plus-circle" viewBox="0 0 24 24"><circle cx="12" cy="12" r="10"/><path d="M12 8v8m-4-4h8"/>
</symbol>
<symbol id="plus-square" viewBox="0 0 24 24"><rect x="3" y="3" width="18" height="18" rx="2" ry="2"/><path d="M12 8v8m-4-4h8"/>
</symbol>
<symbol id="plus" viewBox="0 0 24 24"><path d="M12 5v14m-7-7h14"/>
</symbol>
<symbol id="power" viewBox="0 0 24 24"><path d="M18.36 6.64a9 9 0 1 1-12.73 0M12 2v10"/>
</symbol>
<symbol id="printer" viewBox="0 0 24 24"><path d="M6 9V2h12v7M6 18H4a2 2 0 0 1-2-2v-5a2 2 0 0 1 2-2h16a2 2 0 0 1 2 2v5a2 2 0 0 1-2 2h-2"/><path d="M6 14h12v8H6z"/>
</symbol>
<symbol id="radio" viewBox="0 0 24 24"><circle cx="12" cy="12" r="2"/><path d="M16.24 7.76a6 6 0 0 1 0 8.49m-8.48-.01a6 6 0 0 1 0-8.49m11.31-2.82a10 10 0 0 1 0 14.14m-14.14 0a10 10 0 0 1 0-14.14"/>
</symbol>
<symbol id="refresh-ccw" viewBox="0 0 24 24"><path d="M1 4v6h6m16 10v-6h-6"/><path d="M20.49 9A9 9 0 0 0 5.64 5.64L1 10m22 4l-4.64 4.36A9 9 0 0 1 3.51 15"/>
</symbol>
<symbol id="refresh-cw" viewBox="0 0 24 24"><path d="M23 4v6h-6M1 20v-6h6"/><path d="M3.51 9a9 9 0 0 1 14.85-3.36L23 10M1 14l4.64 4.36A9 9 0 0 0 20.49 15"/>
</symbol>
<symbol id="repeat" viewBox="0 0 24 24"><path fill="none" stroke="inherit" stroke-linecap="round" stroke-linejoin="round" stroke-width="2" d="M17 1l4 4-4 4"/><path d="M3 11V9a4 4 0 0 1 4-4h14M7 23l-4-4 4-4" fill="none" stroke="inherit" stroke-linecap="round" stroke-linejoin="round" stroke-width="2"/><path d="M21 13v2a4 4 0 0 1-4 4H3" fill="none" stroke="inherit" stroke-linecap="round" stroke-linejoin="round" stroke-width="2"/>
</symbol>
<symbol id="rewind" viewBox="0 0 24 24"><path d="M11 19l-9-7 9-7v14zM22 19l-9-7 9-7v14z"/>
</symbol>
<symbol id="rotate-ccw" viewBox="0 0 24 24"><path d="M1 4v6h6"/><path d="M3.51 15a9 9 0 1 0 2.13-9.36L1 10"/>
</symbol>
<symbol id="rotate-cw" viewBox="0 0 24 24"><path fill="none" stroke="inherit" stroke-linecap="round" stroke-linejoin="round" stroke-width="2" d="M23 4v6h-6"/><path d="M20.49 15a9 9 0 1 1-2.12-9.36L23 10" fill="none" stroke="inherit" stroke-linecap="round" stroke-linejoin="round" stroke-width="2"/>
</symbol>
<symbol id="scissors" viewBox="0 0 24 24"><circle cx="6" cy="6" r="3" fill="none" stroke="inherit" stroke-linecap="round" stroke-linejoin="round" stroke-width="2"/><circle cx="6" cy="18" r="3" fill="none" stroke="inherit" stroke-linecap="round" stroke-linejoin="round" stroke-width="2"/><path fill="none" stroke="inherit" stroke-linecap="round" stroke-linejoin="round" stroke-width="2" d="M20 4L8.12 15.88m6.35-1.4L20 20M8.12 8.12L12 12"/>
</symbol>
<symbol id="search" viewBox="0 0 24 24"><circle cx="10.5" cy="10.5" r="7.5"/><path d="M21 21l-5.2-5.2"/>
</symbol>
<symbol id="settings" viewBox="0 0 24 24"><circle cx="12" cy="12" r="3" fill="none" stroke="inherit" stroke-linecap="round" stroke-linejoin="round" stroke-width="2"/><path d="M19.4 15a1.65 1.65 0 0 0 .33 1.82l.06.06a2 2 0 0 1 0 2.83 2 2 0 0 1-2.83 0l-.06-.06a1.65 1.65 0 0 0-1.82-.33 1.65 1.65 0 0 0-1 1.51V21a2 2 0 0 1-2 2 2 2 0 0 1-2-2v-.09A1.65 1.65 0 0 0 9 19.4a1.65 1.65 0 0 0-1.82.33l-.06.06a2 2 0 0 1-2.83 0 2 2 0 0 1 0-2.83l.06-.06a1.65 1.65 0 0 0 .33-1.82 1.65 1.65 0 0 0-1.51-1H3a2 2 0 0 1-2-2 2 2 0 0 1 2-2h.09A1.65 1.65 0 0 0 4.6 9a1.65 1.65 0 0 0-.33-1.82l-.06-.06a2 2 0 0 1 0-2.83 2 2 0 0 1 2.83 0l.06.06a1.65 1.65 0 0 0 1.82.33H9a1.65 1.65 0 0 0 1-1.51V3a2 2 0 0 1 2-2 2 2 0 0 1 2 2v.09a1.65 1.65 0 0 0 1 1.51 1.65 1.65 0 0 0 1.82-.33l.06-.06a2 2 0 0 1 2.83 0 2 2 0 0 1 0 2.83l-.06.06a1.65 1.65 0 0 0-.33 1.82V9a1.65 1.65 0 0 0 1.51 1H21a2 2 0 0 1 2 2 2 2 0 0 1-2 2h-.09a1.65 1.65 0 0 0-1.51 1z" fill="none" stroke="inherit" stroke-miterlimit="10" stroke-width="2"/>
</symbol>
<symbol id="share-2" viewBox="0 0 24 24"><circle cx="18" cy="5" r="3"/><circle cx="6" cy="12" r="3"/><circle cx="18" cy="19" r="3"/><path d="M8.59 13.51l6.83 3.98m-.01-10.98l-6.82 3.98"/>
</symbol>
<symbol id="share" viewBox="0 0 24 24"><path d="M4 12v8a2 2 0 0 0 2 2h12a2 2 0 0 0 2-2v-8m-4-6l-4-4-4 4m4-4v13" fill="none" stroke="inherit" stroke-linecap="round" stroke-linejoin="round" stroke-width="2"/>
</symbol>
<symbol id="shuffle" viewBox="0 0 24 24"><path fill="none" stroke="inherit" stroke-linecap="round" stroke-linejoin="round" stroke-width="2" d="M16 3h5v5M4 20L21 3M21 16v5h-5M15 15l6 6M4 4l5 5"/>
</symbol>
<symbol id="skip-back" viewBox="0 0 24 24"><path fill="none" stroke="inherit" stroke-linecap="round" stroke-linejoin="round" stroke-width="2" d="M19 20L9 12l10-8v16zM5 19V5"/>
</symbol>
<symbol id="skip-forward" viewBox="0 0 24 24"><path fill="none" stroke="inherit" stroke-linecap="round" stroke-linejoin="round" stroke-width="2" d="M5 4l10 8-10 8V4zM19 5v14"/>
</symbol>
<symbol id="slash" viewBox="0 0 24 24"><circle cx="12" cy="12" r="10"/><path d="M4.93 4.93l14.14 14.14"/>
</symbol>
<symbol id="speaker" viewBox="0 0 24 24"><rect x="4" y="2" width="16" height="20" rx="2" ry="2" fill="none" stroke="inherit" stroke-linecap="round" stroke-linejoin="round" stroke-width="2"/><circle cx="12" cy="14" r="4" fill="none" stroke="inherit" stroke-linecap="round" stroke-linejoin="round" stroke-width="2"/>
</symbol>
<symbol id="square" viewBox="0 0 24 24"><rect x="3" y="3" width="18" height="18" rx="2" ry="2"/>
</symbol>
<symbol id="star" viewBox="0 0 24 24"><path d="M12 2l3.09 6.26L22 9.27l-5 4.87 1.18 6.88L12 17.77l-6.18 3.25L7 14.14 2 9.27l6.91-1.01L12 2z"/>
</symbol>
<symbol id="sun" viewBox="0 0 24 24"><circle cx="12" cy="12" r="5"/><path d="M12 1v2M12 21v2M4.22 4.22l1.42 1.42M18.36 18.36l1.42 1.42M1 12h2M21 12h2M4.22 19.78l1.42-1.42M18.36 5.64l1.42-1.42"/>
</symbol>
<symbol id="sunrise" viewBox="0 0 24 24"><path d="M17 18a5 5 0 0 0-10 0M12 2v7M4.22 10.22l1.42 1.42M1 18h2M21 18h2M18.36 11.64l1.42-1.42M23 22H1M8 6l4-4 4 4"/>
</symbol>
<symbol id="sunset" viewBox="0 0 24 24"><path d="M17 18a5 5 0 0 0-10 0M12 9V2M4.22 10.22l1.42 1.42M1 18h2M21 18h2M18.36 11.64l1.42-1.42M23 22H1M16 5l-4 4-4-4"/>
</symbol>
<symbol id="tag" viewBox="0 0 24 24"><path d="M20.59 13.41l-7.17 7.17a2 2 0 0 1-2.83 0L2 12V2h10l8.59 8.59a2 2 0 0 1 0 2.82zM7 7"/>
</symbol>
<symbol id="target" viewBox="0 0 24 24"><circle cx="12" cy="12" r="10"/><circle cx="12" cy="12" r="6"/><circle cx="12" cy="12" r="2"/>
</symbol>
<symbol id="thermometer" viewBox="0 0 24 24"><path d="M14 14.76V3.5a2.5 2.5 0 0 0-5 0v11.26a4.5 4.5 0 1 0 5 0z"/>
</symbol>
<symbol id="thumbs-down" viewBox="0 0 24 24"><path d="M10 15v4a3 3 0 0 0 3 3l4-9V2H5.72a2 2 0 0 0-2 1.7l-1.38 9a2 2 0 0 0 2 2.3zm7-13h2.67A2.31 2.31 0 0 1 22 4v7a2.31 2.31 0 0 1-2.33 2H17"/>
</symbol>
<symbol id="thumbs-up" viewBox="0 0 24 24"><path d="M14 9V5a3 3 0 0 0-3-3l-4 9v11h11.28a2 2 0 0 0 2-1.7l1.38-9a2 2 0 0 0-2-2.3zM7 22H4a2 2 0 0 1-2-2v-7a2 2 0 0 1 2-2h3"/>
</symbol>
<symbol id="tick" viewBox="0 0 16 16"><title>Artboard 1</title><circle cx="8" cy="8" r="8" fill="#29BE3D"/><path fill="none" stroke="#fff" stroke-linecap="round" stroke-linejoin="round" stroke-width="2" d="M4 8l3 3 5-6"/>
</symbol>
<symbol id="toggle-left" viewBox="0 0 24 24"><rect x="1" y="5" width="22" height="14" rx="7" ry="7"/><circle cx="8" cy="12" r="3"/>
</symbol>
<symbol id="toggle-right" viewBox="0 0 24 24"><rect x="1" y="5" width="22" height="14" rx="7" ry="7"/><circle cx="16" cy="12" r="3"/>
</symbol>
<symbol id="trash-2" viewBox="0 0 24 24"><path d="M3 6h18m-2 0v14a2 2 0 0 1-2 2H7a2 2 0 0 1-2-2V6m3 0V4a2 2 0 0 1 2-2h4a2 2 0 0 1 2 2v2m-6 5v6m4-6v6"/>
</symbol>
<symbol id="trash" viewBox="0 0 24 24"><path d="M3 6h18m-2 0v14a2 2 0 0 1-2 2H7a2 2 0 0 1-2-2V6m3 0V4a2 2 0 0 1 2-2h4a2 2 0 0 1 2 2v2"/>
</symbol>
<symbol id="trending-down" viewBox="0 0 24 24"><path fill="none" stroke="inherit" stroke-linecap="round" stroke-linejoin="round" stroke-width="2" d="M23 18l-9.5-9.5-5 5L1 6"/><path fill="none" stroke="inherit" stroke-linecap="round" stroke-linejoin="round" stroke-width="2" d="M17 18h6v-6"/>
</symbol>
<symbol id="trending-up" viewBox="0 0 24 24"><path fill="none" stroke="inherit" stroke-linecap="round" stroke-linejoin="round" stroke-width="2" d="M23 6l-9.5 9.5-5-5L1 18"/><path fill="none" stroke="inherit" stroke-linecap="round" stroke-linejoin="round" stroke-width="2" d="M17 6h6v6"/>
</symbol>
<symbol id="triangle" viewBox="0 0 24 24"><path d="M10.29 3.86L1.82 18a2 2 0 0 0 1.71 3h16.94a2 2 0 0 0 1.71-3L13.71 3.86a2 2 0 0 0-3.42 0z"/>
</symbol>
<symbol id="twitter" viewBox="0 0 24.00 24.00"><path d="M22.46 6.012a8.58 8.58 0 0 1-2.466.676 4.305 4.305 0 0 0 1.887-2.374 8.591 8.591 0 0 1-2.725 1.041 4.292 4.292 0 0 0-7.313 3.914 12.184 12.184 0 0 1-8.846-4.483 4.271 4.271 0 0 0-.581 2.157 4.29 4.29 0 0 0 1.91 3.572 4.276 4.276 0 0 1-1.945-.537v.054c0 2.08 1.48 3.814 3.443 4.209a4.296 4.296 0 0 1-1.939.073 4.296 4.296 0 0 0 4.01 2.98 8.61 8.61 0 0 1-5.33 1.838c-.347 0-.688-.02-1.024-.06A12.147 12.147 0 0 0 8.12 21c7.893 0 12.21-6.54 12.21-12.21 0-.187-.004-.372-.012-.556a8.719 8.719 0 0 0 2.141-2.222z"/>
</symbol>
<symbol id="type" viewBox="0 0 24 24"><path fill="none" stroke="inherit" stroke-linecap="round" stroke-linejoin="round" stroke-width="2" d="M4 7V4h16v3M9 20h6M12 4v16"/>
</symbol>
<symbol id="umbrella" viewBox="0 0 24 24"><path d="M23 12a11.05 11.05 0 0 0-22 0zm-5 7a3 3 0 0 1-6 0v-7"/>
</symbol>
<symbol id="unlock" viewBox="0 0 24 24"><rect x="3" y="11" width="18" height="11" rx="2" ry="2"/><path d="M7 11V7a5 5 0 0 1 9.9-1"/>
</symbol>
<symbol id="upload-cloud" viewBox="0 0 24 24"><path d="M16 16l-4-4-4 4m4-4v9"/><path d="M20.39 18.39A5 5 0 0 0 18 9h-1.26A8 8 0 1 0 3 16.3"/><path d="M16 16l-4-4-4 4"/>
</symbol>
<symbol id="upload" viewBox="0 0 24 24"><path d="M3 17v3a2 2 0 0 0 2 2h14a2 2 0 0 0 2-2v-3M16 6l-4-4-4 4m4-4v14"/>
</symbol>
<symbol id="user-check" viewBox="0 0 24 24"><path d="M16 21v-2a4 4 0 0 0-4-4H5a4 4 0 0 0-4 4v2" fill="none" stroke="inherit" stroke-linecap="round" stroke-linejoin="round" stroke-width="2"/><circle cx="8.5" cy="7" r="4" fill="none" stroke="inherit" stroke-linecap="round" stroke-linejoin="round" stroke-width="2"/><path fill="none" stroke="inherit" stroke-linecap="round" stroke-linejoin="round" stroke-width="2" d="M17 11l2 2 4-4"/>
</symbol>
<symbol id="user-minus" viewBox="0 0 24 24"><path d="M16 21v-2a4 4 0 0 0-4-4H5a4 4 0 0 0-4 4v2" fill="none" stroke="inherit" stroke-linecap="round" stroke-linejoin="round" stroke-width="2"/><circle cx="8.5" cy="7" r="4" fill="none" stroke="inherit" stroke-linecap="round" stroke-linejoin="round" stroke-width="2"/><path fill="none" stroke="inherit" stroke-linecap="round" stroke-linejoin="round" stroke-width="2" d="M23 11h-6"/>
</symbol>
<symbol id="user-plus" viewBox="0 0 24 24"><path d="M16 21v-2a4 4 0 0 0-4-4H5a4 4 0 0 0-4 4v2" fill="none" stroke="inherit" stroke-linecap="round" stroke-linejoin="round" stroke-width="2"/><circle cx="8.5" cy="7" r="4" fill="none" stroke="inherit" stroke-linecap="round" stroke-linejoin="round" stroke-width="2"/><path fill="none" stroke="inherit" stroke-linecap="round" stroke-linejoin="round" stroke-width="2" d="M20 8v6m3-3h-6"/>
</symbol>
<symbol id="user-x" viewBox="0 0 24 24"><path d="M16 21v-2a4 4 0 0 0-4-4H5a4 4 0 0 0-4 4v2" fill="none" stroke="inherit" stroke-linecap="round" stroke-linejoin="round" stroke-width="2"/><circle cx="8.5" cy="7" r="4" fill="none" stroke="inherit" stroke-linecap="round" stroke-linejoin="round" stroke-width="2"/><path fill="none" stroke="inherit" stroke-linecap="round" stroke-linejoin="round" stroke-width="2" d="M18 8l5 5m0-5l-5 5"/>
</symbol>
<symbol id="user" viewBox="0 0 24 24"><path d="M20 21v-2a4 4 0 0 0-4-4H8a4 4 0 0 0-4 4v2" fill="none" stroke="inherit" stroke-linecap="round" stroke-linejoin="round" stroke-width="2"/><circle cx="12" cy="7" r="4" fill="none" stroke="inherit" stroke-linecap="round" stroke-linejoin="round" stroke-width="2"/>
</symbol>
<symbol id="video-off" viewBox="0 0 24 24"><path d="M16 16v1a2 2 0 0 1-2 2H3a2 2 0 0 1-2-2V7a2 2 0 0 1 2-2h2m5.66 0H14a2 2 0 0 1 2 2v3.34l1 1L23 7v10M1 1l22 22"/>
</symbol>
<symbol id="video" viewBox="0 0 24 24"><path d="M23 7l-7 5 7 5V7z"/><rect x="1" y="5" width="15" height="14" rx="2" ry="2"/>
</symbol>
<symbol id="voicemail" viewBox="0 0 24 24"><circle cx="5.5" cy="11.5" r="4.5" fill="none" stroke="inherit" stroke-miterlimit="10" stroke-width="2"/><circle cx="18.5" cy="11.5" r="4.5" fill="none" stroke="inherit" stroke-miterlimit="10" stroke-width="2"/><path fill="none" stroke="inherit" stroke-miterlimit="10" stroke-width="2" d="M5.5 16h13"/>
</symbol>
<symbol id="volume-1" viewBox="0 0 24 24"><path fill="none" stroke="inherit" stroke-linecap="round" stroke-linejoin="round" stroke-width="2" d="M11 5L6 9H2v6h4l5 4V5zM15.54 8.46a5 5 0 0 1 0 7.07"/>
</symbol>
<symbol id="volume-2" viewBox="0 0 24 24"><path fill="none" stroke="inherit" stroke-linecap="round" stroke-linejoin="round" stroke-width="2" d="M11 5L6 9H2v6h4l5 4V5zM19.07 4.93a10 10 0 0 1 0 14.14M15.54 8.46a5 5 0 0 1 0 7.07"/>
</symbol>
<symbol id="volume-x" viewBox="0 0 24 24"><path fill="none" stroke="inherit" stroke-linecap="round" stroke-linejoin="round" stroke-width="2" d="M11 5L6 9H2v6h4l5 4V5zM23 9l-6 6M17 9l6 6"/>
</symbol>
<symbol id="volume" viewBox="0 0 24 24"><path fill="none" stroke="inherit" stroke-linecap="round" stroke-linejoin="round" stroke-width="2" d="M11 5L6 9H2v6h4l5 4V5z"/>
</symbol>
<symbol id="watch" viewBox="0 0 24 24"><circle cx="12" cy="12" r="7"/><path d="M12 9v3l1.5 1.5m3.01 3.85l-.35 3.83a2 2 0 0 1-2 1.82H9.83a2 2 0 0 1-2-1.82l-.35-3.83m.01-10.7l.35-3.83A2 2 0 0 1 9.83 1h4.35a2 2 0 0 1 2 1.82l.35 3.83"/>
</symbol>
<symbol id="wifi" viewBox="0 0 24 24"><path d="M5 11.55a11 11 0 0 1 14.08 0M1.41 8a16 16 0 0 1 21.17 0M8.52 15.11a6 6 0 0 1 6.95 0M12 19"/>
</symbol>
<symbol id="wind" viewBox="0 0 24 24"><path d="M9.59 4.59A2 2 0 1 1 11 8H2m10.59 11.41A2 2 0 1 0 14 16H2m15.73-8.27A2.5 2.5 0 1 1 19.5 12H2"/>
</symbol>
<symbol id="x-circle" viewBox="0 0 24 24"><circle cx="12" cy="12" r="10"/><path d="M15 9l-6 6m0-6l6 6"/>
</symbol>
<symbol id="x-square" viewBox="0 0 24 24"><rect x="3" y="3" width="18" height="18" rx="2" ry="2"/><path d="M9 9l6 6m0-6l-6 6"/>
</symbol>
<symbol id="x" viewBox="0 0 24 24"><path d="M18 6L6 18M6 6l12 12"/>
</symbol>
<symbol id="youtube" viewBox="0 0 24.00 24.00"><path d="M10 16.498v-9l6 4.5m4-7.6c-.602-.197-4.3-.4-8.002-.4-3.699 0-7.398.187-8 .384-1.564.516-2 4.02-2 7.616s.436 7.1 2 7.616c.602.197 4.301.384 8 .384 3.702 0 7.4-.187 8.002-.384 1.562-.516 1.988-4.02 1.988-7.616s-.426-7.084-1.988-7.6z"/>
</symbol>
<symbol id="zap" viewBox="0 0 24 24"><path d="M13 2L3 14h9l-1 8 10-12h-9l1-8z"/>
</symbol>
<symbol id="zoom-in" viewBox="0 0 24 24"><circle cx="11" cy="11" r="8"/><path d="M21 21l-4.35-4.35M11 8v6m-3-3h6"/>
</symbol>
<symbol id="zoom-out" viewBox="0 0 24 24"><circle cx="11" cy="11" r="8"/><path d="M21 21l-4.35-4.35M8 11h6"/>
</symbol></svg>