<?xml version="1.0" encoding="utf-8"?>
<svg xmlns="http://www.w3.org/2000/svg">
<symbol id="arrow-down-left" viewBox="0 0 16 16"><g fill="none" fill-rule="evenodd" stroke="#000" stroke-width="2"><path d="M12 4l-7.272 7.273M4 6.182V12h5.818"/></g>
</symbol>
<symbol id="arrow-down-right" viewBox="0 0 16 16"><g fill="none" fill-rule="evenodd" stroke="#000" stroke-width="2"><path d="M4 4l7.272 7.273M6.182 12H12V6.182M4 4l7.272 7.273"/><path d="M6.182 12H12V6.182"/></g>
</symbol>
<symbol id="arrow-down" viewBox="0 0 16 16"><g fill="none" fill-rule="evenodd" stroke="#000" stroke-width="2"><path d="M8 2v10M4 9l4 4 4-4"/></g>
</symbol>
<symbol id="arrow-left" viewBox="0 0 16 16"><g fill="none" fill-rule="evenodd" stroke="#000" stroke-width="2"><path d="M14 8H4M7 4L3 8l4 4"/></g>
</symbol>
<symbol id="arrow-right" viewBox="0 0 16 16"><g fill="none" fill-rule="evenodd" stroke="#000" stroke-width="2"><path d="M2 8h10M9 12l4-4-4-4"/></g>
</symbol>
<symbol id="arrow-up-left" viewBox="0 0 16 16"><g fill="none" fill-rule="evenodd" stroke="#000" stroke-width="2"><path d="M12 12L4.728 4.727M9.818 4H4v5.818"/></g>
</symbol>
<symbol id="arrow-up-right" viewBox="0 0 16 16"><g fill="none" fill-rule="evenodd" stroke="#000" stroke-width="2"><path d="M4 12l7.272-7.273M12 9.818V4H6.182"/></g>
</symbol>
<symbol id="arrow-up" viewBox="0 0 16 16"><g fill="none" fill-rule="evenodd" stroke="#000" stroke-width="2"><path d="M8 14V4M12 7L8 3 4 7"/></g>
</symbol>
<symbol id="arrows-down-up" viewBox="0 0 16 16"><g fill="none" fill-rule="evenodd" stroke="#000" stroke-width="2"><path d="M12 13V5M15 7l-3-3-3 3M4 3v8M1 9l3 3 3-3"/></g>
</symbol>
<symbol id="arrows-down" viewBox="0 0 16 16"><g fill="none" fill-rule="evenodd" stroke="#000" stroke-width="2"><path d="M12 3v8M9 9l3 3 3-3M4 3v8M1 9l3 3 3-3"/></g>
</symbol>
<symbol id="arrows-left-right" viewBox="0 0 16 16"><g fill="none" fill-rule="evenodd" stroke="#000" stroke-width="2"><path d="M3 12h8M9 15l3-3-3-3M13 4H5M7 1L4 4l3 3"/></g>
</symbol>
<symbol id="arrows-left" viewBox="0 0 16 16"><g fill="none" fill-rule="evenodd" stroke="#000" stroke-width="2"><path d="M13 12H5M7 9l-3 3 3 3M13 4H5M7 1L4 4l3 3"/></g>
</symbol>
<symbol id="arrows-right-left" viewBox="0 0 16 16"><g fill="none" fill-rule="evenodd" stroke="#000" stroke-width="2"><path d="M3 4h8M9 7l3-3-3-3M13 12H5M7 9l-3 3 3 3"/></g>
</symbol>
<symbol id="arrows-right" viewBox="0 0 16 16"><g fill="none" fill-rule="evenodd" stroke="#000" stroke-width="2"><path d="M3 4h8M9 7l3-3-3-3M3 12h8M9 15l3-3-3-3"/></g>
</symbol>
<symbol id="arrows-up-down" viewBox="0 0 16 16"><g fill="none" fill-rule="evenodd" stroke="#000" stroke-width="2"><path d="M12 4v8M9 10l3 3 3-3M4 13V5M7 7L4 4 1 7"/></g>
</symbol>
<symbol id="arrows-up" viewBox="0 0 16 16"><g fill="none" fill-rule="evenodd" stroke="#000" stroke-width="2"><path d="M4 13V5M7 7L4 4 1 7M12 13V5M15 7l-3-3-3 3"/></g>
</symbol>
<symbol id="chevron-down" viewBox="0 0 16 16"><path fill="none" stroke="#000" stroke-width="2" d="M4 6l4 4 4-4"/>
</symbol>
<symbol id="chevron-left" viewBox="0 0 16 16"><path fill="none" stroke="#000" stroke-width="2" d="M10 4L6 8l4 4"/>
</symbol>
<symbol id="chevron-right" viewBox="0 0 16 16"><path fill="none" stroke="#000" stroke-width="2" d="M6 12l4-4-4-4"/>
</symbol>
<symbol id="chevron-up" viewBox="0 0 16 16"><path fill="none" stroke="#000" stroke-width="2" d="M12 10L8 6l-4 4"/>
</symbol>
<symbol id="chevrons-down" viewBox="0 0 16 16"><g fill="none" fill-rule="evenodd" stroke="#000" stroke-width="2"><path d="M4 9l4 4 4-4M4 4l4 4 4-4"/></g>
</symbol>
<symbol id="chevrons-left" viewBox="0 0 16 16"><g fill="none" fill-rule="evenodd" stroke="#000" stroke-width="2"><path d="M8 4L4 8l4 4M13 4L9 8l4 4"/></g>
</symbol>
<symbol id="chevrons-right" viewBox="0 0 16 16"><g fill="none" fill-rule="evenodd" stroke="#000" stroke-width="2"><path d="M9 12l4-4-4-4M4 12l4-4-4-4"/></g>
</symbol>
<symbol id="chevrons-up" viewBox="0 0 16 16"><g fill="none" fill-rule="evenodd" stroke="#000" stroke-width="2"><path d="M12 8L8 4 4 8M12 13L8 9l-4 4"/></g>
</symbol>
<symbol id="entrance-down" viewBox="0 0 16 16"><g fill="none" fill-rule="evenodd" stroke="#000" stroke-width="2"><path d="M14 4v10H2V4M8 1v8"/><path d="M5 7l3 3 3-3"/></g>
</symbol>
<symbol id="entrance-left" viewBox="0 0 16 16"><g fill="none" fill-rule="evenodd" stroke="#000" stroke-width="2"><path d="M12 14H2V2h10M15 8H7"/><path d="M9 5L6 8l3 3"/></g>
</symbol>
<symbol id="entrance-right" viewBox="0 0 16 16"><g fill="none" fill-rule="evenodd" stroke="#000" stroke-width="2"><path d="M4 2h10v12H4M1 8h8"/><path d="M7 11l3-3-3-3"/></g>
</symbol>
<symbol id="entrance-up" viewBox="0 0 16 16"><g fill="none" fill-rule="evenodd" stroke="#000" stroke-width="2"><path d="M2 12V2h12v10M8 15V7"/><path d="M11 9L8 6 5 9"/></g>
</symbol>
<symbol id="info-circle" viewBox="0 0 16 16"><path fill-rule="evenodd" d="M8 16A8 8 0 1 1 8 0a8 8 0 0 1 0 16zM7 8v4h2V8H7zm0-4v2h2V4H7z"/>
</symbol>
<symbol id="info-hexagon" viewBox="0 0 16 16"><path fill-rule="evenodd" d="M16 8l-4 6.928H4L0 8l4-6.928h8L16 8zM7 8v4h2V8H7zm0-4v2h2V4H7z"/>
</symbol>
<symbol id="info-triangle" viewBox="0 0 16 16"><path fill-rule="evenodd" d="M8 1l8 14H0L8 1zM7 9v4h2V9H7zm0-3v2h2V6H7z"/>
</symbol>
<symbol id="info" viewBox="0 0 16 16"><g fill-rule="evenodd"><path d="M7 7h2v6H7zM7 3h2v2H7z"/></g>
</symbol>
<symbol id="ramp-down" viewBox="0 0 16 16"><g fill="none" fill-rule="evenodd"><path fill="#000" d="M5 15h10V5z"/><path stroke="#000" stroke-width="2" d="M8 2L2 8M2 4v4h4"/></g>
</symbol>
<symbol id="ramp-up" viewBox="0 0 16 16"><g fill="none" fill-rule="evenodd"><path fill="#000" d="M5 15h10V5z"/><path stroke="#000" stroke-width="2" d="M2 8l6-6M8 6V2H4"/></g>
</symbol>
<symbol id="stairs-down" viewBox="0 0 16 16"><g fill="none" fill-rule="evenodd"><path stroke="#000" stroke-width="2" d="M8 2L2 8M2 4v4h4"/><path fill="#000" d="M13 5v2h-2v2H9v2H7v2H5v2h10V5z"/></g>
</symbol>
<symbol id="stairs-up" viewBox="0 0 16 16"><g fill="none" fill-rule="evenodd"><path stroke="#000" stroke-width="2" d="M2 8l6-6M8 6V2H4"/><path fill="#000" d="M13 5v2h-2v2H9v2H7v2H5v2h10V5z"/></g>
</symbol>
<symbol id="toilet" viewBox="0 0 16 16"><g fill-rule="evenodd"><path d="M14 3a2 2 0 1 1-4.001-.001A2 2 0 0 1 14 3M10 11h4V6h-4zM11 15h2v-4h-2zM7 3a2 2 0 1 1-4.001-.001A2 2 0 0 1 7 3M8 11H2l1-5h4zM4 15h2v-4H4z"/></g>
</symbol>
<symbol id="warning-circle" viewBox="0 0 16 16"><path fill-rule="evenodd" d="M8 16A8 8 0 1 1 8 0a8 8 0 0 1 0 16zM7 4v4h2V4H7zm0 6v2h2v-2H7z"/>
</symbol>
<symbol id="warning-hexagon" viewBox="0 0 16 16"><path fill-rule="evenodd" d="M16.083 7.917l-4 6.928h-8l-4-6.928 4-6.928h8l4 6.928zM7 4v4h2V4H7zm0 6v2h2v-2H7z"/>
</symbol>
<symbol id="warning-triangle" viewBox="0 0 16 16"><path fill-rule="evenodd" d="M8 1l8 14H0L8 1zM7 6v4h2V6H7zm0 5v2h2v-2H7z"/>
</symbol>
<symbol id="warning" viewBox="0 0 16 16"><g fill-rule="evenodd"><path d="M7 3h2v6H7zM7 11h2v2H7z"/></g>
</symbol></svg>