<?xml version="1.0" encoding="utf-8"?>
<svg xmlns="http://www.w3.org/2000/svg">
<symbol id="arrow-down" viewBox="0 0 24 24"><path d="M20 12l-1.41-1.41L13 16.17V4h-2v12.17l-5.58-5.59L4 12l8 8 8-8z"/>
</symbol>
<symbol id="arrow-left" viewBox="0 0 24 24"><path d="M20 11H7.83l5.59-5.59L12 4l-8 8 8 8 1.41-1.41L7.83 13H20v-2z"/>
</symbol>
<symbol id="arrow-right" viewBox="0 0 24 24"><path d="M12 4l-1.41 1.41L16.17 11H4v2h12.17l-5.58 5.59L12 20l8-8z"/>
</symbol>
<symbol id="arrow-up" viewBox="0 0 24 24"><path d="M4 12l1.41 1.41L11 7.83V20h2V7.83l5.58 5.59L20 12l-8-8-8 8z"/>
</symbol>
<symbol id="chevron-double-down" viewBox="0 0 24.00 24.00"><path d="M16.586 5.586L18 7l-6 6-6-6 1.414-1.414L12 10.172l4.586-4.586zm0 6L18 13l-6 6-6-6 1.414-1.414L12 16.172l4.586-4.586z"/>
</symbol>
<symbol id="chevron-double-left" viewBox="0 0 24.00 24.00"><path d="M18.414 7.414L17 6l-6 6 6 6 1.414-1.414L13.828 12l4.586-4.586zm-6 0L11 6l-6 6 6 6 1.414-1.414L7.828 12l4.586-4.586z"/>
</symbol>
<symbol id="chevron-double-right" viewBox="0 0 24.00 24.00"><path d="M5.586 7.414L7 6l6 6-6 6-1.414-1.414L10.172 12 5.586 7.414zm6 0L13 6l6 6-6 6-1.414-1.414L16.172 12l-4.586-4.586z"/>
</symbol>
<symbol id="chevron-double-up" viewBox="0 0 24.00 24.00"><path d="M7.414 18.414L6 17l6-6 6 6-1.414 1.414L12 13.828l-4.586 4.586zm0-6L6 11l6-6 6 6-1.414 1.414L12 7.828l-4.586 4.586z"/>
</symbol>
<symbol id="chevron-down" viewBox="0 0 24 24"><path d="M7.41 7.84L12 12.42l4.59-4.58L18 9.25l-6 6-6-6z"/>
</symbol>
<symbol id="chevron-left" viewBox="0 0 24 24"><path d="M15.41 16.09l-4.58-4.59 4.58-4.59L14 5.5l-6 6 6 6z"/>
</symbol>
<symbol id="chevron-right" viewBox="0 0 24 24"><path d="M8.59 16.34l4.58-4.59-4.58-4.59L10 5.75l6 6-6 6z"/>
</symbol>
<symbol id="chevron-up" viewBox="0 0 24 24"><path d="M7.41 15.41L12 10.83l4.59 4.58L18 14l-6-6-6 6z"/>
</symbol>
<symbol id="facebook" viewBox="0 0 24.00 24.00"><path d="M19 3.998v3h-2a1 1 0 0 0-1 1v2h3v3h-3v7h-3v-7h-2v-3h2v-2.5a3.5 3.5 0 0 1 3.5-3.5m3.5-2H4a1.99 1.99 0 0 0-1.99 2l-.01 16a2 2 0 0 0 2 2h16c1.103 0 2-.896 2-2v-16a2 2 0 0 0-2-2z"/>
</symbol>
<symbol id="instagram" viewBox="0 0 24.00 24.00"><path d="M7.8 2h8.4A5.8 5.8 0 0 1 22 7.8v8.4a5.8 5.8 0 0 1-5.8 5.8H7.8A5.8 5.8 0 0 1 2 16.2V7.8A5.8 5.8 0 0 1 7.8 2zm-.2 2A3.6 3.6 0 0 0 4 7.6v8.8A3.6 3.6 0 0 0 7.6 20h8.8a3.6 3.6 0 0 0 3.6-3.6V7.6A3.6 3.6 0 0 0 16.4 4H7.6zm9.65 1.5a1.25 1.25 0 1 1 0 2.5 1.25 1.25 0 0 1 0-2.5zM12 7a5 5 0 1 1 0 10 5 5 0 0 1 0-10zm0 2a3 3 0 1 0 0 6 3 3 0 0 0 0-6z"/>
</symbol>
<symbol id="tick" viewBox="0 0 16 16"><title>Artboard 1</title><circle cx="8" cy="8" r="8" fill="#29BE3D"/><path fill="none" stroke="#fff" stroke-linecap="round" stroke-linejoin="round" stroke-width="2" d="M4 8l3 3 5-6"/>
</symbol>
<symbol id="twitter" viewBox="0 0 24.00 24.00"><path d="M22.46 6.012a8.58 8.58 0 0 1-2.466.676 4.305 4.305 0 0 0 1.887-2.374 8.591 8.591 0 0 1-2.725 1.041 4.292 4.292 0 0 0-7.313 3.914 12.184 12.184 0 0 1-8.846-4.483 4.271 4.271 0 0 0-.581 2.157 4.29 4.29 0 0 0 1.91 3.572 4.276 4.276 0 0 1-1.945-.537v.054c0 2.08 1.48 3.814 3.443 4.209a4.296 4.296 0 0 1-1.939.073 4.296 4.296 0 0 0 4.01 2.98 8.61 8.61 0 0 1-5.33 1.838c-.347 0-.688-.02-1.024-.06A12.147 12.147 0 0 0 8.12 21c7.893 0 12.21-6.54 12.21-12.21 0-.187-.004-.372-.012-.556a8.719 8.719 0 0 0 2.141-2.222z"/>
</symbol>
<symbol id="youtube" viewBox="0 0 24.00 24.00"><path d="M10 16.498v-9l6 4.5m4-7.6c-.602-.197-4.3-.4-8.002-.4-3.699 0-7.398.187-8 .384-1.564.516-2 4.02-2 7.616s.436 7.1 2 7.616c.602.197 4.301.384 8 .384 3.702 0 7.4-.187 8.002-.384 1.562-.516 1.988-4.02 1.988-7.616s-.426-7.084-1.988-7.6z"/>
</symbol></svg>