<?xml version="1.0" encoding="utf-8"?>
<svg xmlns="http://www.w3.org/2000/svg">
<symbol id="audio" viewBox="0 0 48 48"><path fill="#bc6cff" d="M7 24l16 12V12L7 24z"/><path fill="#bc6cff" d="M7 18h13v12H7z"/><path d="M26 20a4 4 0 0 1 0 8m0-12a8 8 0 0 1 0 16m0-20a12 12 0 1 1 0 24" fill="none" stroke="#410075" stroke-linecap="round" stroke-miterlimit="10" stroke-width="2"/>
</symbol>
<symbol id="circle" viewBox="0 0 48 48"><circle cx="24" cy="24" r="16" fill="#ff8097"/><path d="M15 22a3 3 0 0 1 6 0m6 0a3 3 0 0 1 6 0m-5 5a4 4 0 0 1-8 0" fill="none" stroke="#800018" stroke-linecap="round" stroke-miterlimit="10" stroke-width="2"/>
</symbol>
<symbol id="error" viewBox="0 0 48 48"><path fill="#ff8097" d="M24 10L8 38h32L24 10z"/><path d="M24 20.75v8m0 3.5v1" fill="none" stroke="#800018" stroke-linecap="round" stroke-miterlimit="10" stroke-width="2"/>
</symbol>
<symbol id="eye" viewBox="0 0 48 48"><path d="M42 25s-7 12-18 12C12 37 6 25 6 25s7-12 18-12 18 12 18 12z" fill="#75cdff"/><circle cx="24" cy="25" r="6" fill="none" stroke="#004e7a" stroke-linecap="round" stroke-miterlimit="10" stroke-width="2"/>
</symbol>
<symbol id="hexagon" viewBox="0 0 48 48"><path fill="#ff6bb2" d="M32 10H16L8 24l8 14h16l8-14-8-14z"/><path d="M15 21a3 3 0 0 1 6 0m6 0a3 3 0 0 1 6 0m-5 5a4 4 0 0 1-8 0" fill="none" stroke="#6b0033" stroke-linecap="round" stroke-miterlimit="10" stroke-width="2"/>
</symbol>
<symbol id="lightbulb" viewBox="0 0 48 48"><path fill="#ffaf80" d="M18 29h12v12H18z"/><path d="M36 19.35c0 6.83-6.86 12.36-12 17.65-5.14-5.29-12-10.82-12-17.65A12.18 12.18 0 0 1 24 7a12.18 12.18 0 0 1 12 12.35z" fill="#ffaf80"/><path d="M30 32c0 1.1-2.69 2-6 2s-6-.9-6-2m12 8c0 1.1-2.69 2-6 2s-6-.9-6-2m12-4c0 1.1-2.69 2-6 2s-6-.9-6-2" fill="none" stroke="#843200" stroke-linecap="round" stroke-miterlimit="10" stroke-width="2"/>
</symbol>
<symbol id="logo" viewBox="0 0 16 16"><path d="M8 0a8 8 0 1 0 8 8 8 8 0 0 0-8-8zm4.21 12.21a3.48 3.48 0 0 1-2.46.95 3.48 3.48 0 0 1-2.46-.95A1 1 0 0 1 8.7 10.8a1.78 1.78 0 0 0 2.09 0 1.7 1.7 0 0 0 0-2.09 1.78 1.78 0 0 0-2.09 0 3.48 3.48 0 0 1-2.46.95 3.47 3.47 0 0 1-2.46-.95 3.66 3.66 0 0 1 0-4.91 3.66 3.66 0 0 1 4.91 0 1 1 0 0 1-1.4 1.41 1.78 1.78 0 0 0-2.09 0 1.7 1.7 0 0 0 0 2.09 1.78 1.78 0 0 0 2.09 0 3.66 3.66 0 0 1 4.91 0 3.66 3.66 0 0 1 .01 4.91z"/>
</symbol>
<symbol id="rectangle-horizontal" viewBox="0 0 48 48"><path fill="#ffaf80" d="M0 12h48v24H0z"/><path d="M15 21a3 3 0 0 1 6 0m6 0a3 3 0 0 1 6 0m-5 5a4 4 0 0 1-8 0" fill="none" stroke="#843200" stroke-linecap="round" stroke-miterlimit="10" stroke-width="2"/>
</symbol>
<symbol id="rectangle-vertical" viewBox="0 0 48 48"><path fill="#61ffa0" d="M36 0v48H12V0z"/><path d="M15 21a3 3 0 0 1 6 0m6 0a3 3 0 0 1 6 0m-5 5a4 4 0 0 1-8 0" fill="none" stroke="#006629" stroke-linecap="round" stroke-miterlimit="10" stroke-width="2"/>
</symbol>
<symbol id="rounded-horizontal" viewBox="0 0 48 48"><rect y="12" width="48" height="24" rx="12" ry="12" fill="#75cdff"/><path d="M15 21a3 3 0 0 1 6 0m6 0a3 3 0 0 1 6 0m-5 5a4 4 0 0 1-8 0" fill="none" stroke="#004e7a" stroke-linecap="round" stroke-miterlimit="10" stroke-width="2"/>
</symbol>
<symbol id="rounded-vertical" viewBox="0 0 48 48"><rect y="12" width="48" height="24" rx="12" ry="12" transform="rotate(90 24 24)" fill="#95959a"/><path d="M15 21a3 3 0 0 1 6 0m6 0a3 3 0 0 1 6 0m-5 5a4 4 0 0 1-8 0" fill="none" stroke="#3b3b41" stroke-linecap="round" stroke-miterlimit="10" stroke-width="2"/>
</symbol>
<symbol id="square" viewBox="0 0 48 48"><path fill="#80b9ff" d="M8 8h32v32H8z"/><path d="M14.5 21.5a3 3 0 0 1 6 0m6 0a3 3 0 0 1 6 0m-5 5a4 4 0 0 1-8 0" fill="none" stroke="#003a80" stroke-linecap="round" stroke-miterlimit="10" stroke-width="2"/>
</symbol>
<symbol id="triangle" viewBox="0 0 48 48"><path fill="#bc6cff" d="M24 10L8 38h32L24 10z"/><path d="M14.5 23.5a3 3 0 0 1 6 0m6 0a3 3 0 0 1 6 0m-5 5a4 4 0 0 1-8 0" fill="none" stroke="#410075" stroke-linecap="round" stroke-miterlimit="10" stroke-width="2"/>
</symbol>
<symbol id="warning" viewBox="0 0 48 48"><path fill="#ffaf80" d="M24 10L8 38h32L24 10z"/><path d="M24 21v8m0 3.5v1" fill="none" stroke="#843200" stroke-linecap="round" stroke-miterlimit="10" stroke-width="2"/>
</symbol></svg>