<svg xmlns="http://www.w3.org/2000/svg" width="20" height="20" viewBox="0 0 20 20">
  <path fill-rule="evenodd" d="M122,210 L122,203.104 C122,202.552 122.448,202 123,202 L137,202 C137.552,202 138,202.552 138,203.104 L138,210 L122,210 Z M124,216.104 L124,216.104 C123.448,216.104 123,215.656 123,215.104 C123,214.552 123.448,214.104 124,214.104 C124.552,214.104 125,214.552 125,215.104 C125,215.656 124.552,216.104 124,216.104 L124,216.104 Z M136,216.104 L136,216.104 C135.448,216.104 135,215.656 135,215.104 C135,214.552 135.448,214.104 136,214.104 C136.552,214.104 137,214.552 137,215.104 C137,215.656 136.552,216.104 136,216.104 L136,216.104 Z M122,200 C120.895,200 120,201 120,202.104 L120,210.104 L120,216.104 C120,217.209 120.895,218.104 122,218.104 L122,219.104 C122,219.656 122.448,220 123,220 L125,220 C125.552,220 126,219.656 126,219.104 L126,218 L134,218 L134,219.104 C134,219.656 134.448,220 135,220 L137,220 C137.552,220 138,219.656 138,219.104 L138,218.104 C139.105,218.104 140,217.209 140,216.104 L140,210.104 L140,202.104 C140,201 139.105,200 138,200 L122,200 Z" transform="translate(-120 -200)"/>
</svg>
