<svg xmlns="http://www.w3.org/2000/svg" width="20" height="20" viewBox="0 0 20 20">
  <path fill-rule="evenodd" d="M170.11,289.599 C171.213,289.599 172.11,290.496 172.11,291.599 C172.11,292.702 171.213,293.599 170.11,293.599 C169.007,293.599 168.11,292.702 168.11,291.599 C168.11,290.496 169.007,289.599 170.11,289.599 L170.11,289.599 Z M170.11,295.599 C172.319,295.599 174.11,293.808 174.11,291.599 C174.11,289.39 172.319,287.599 170.11,287.599 C167.901,287.599 166.11,289.39 166.11,291.599 C166.11,293.808 167.901,295.599 170.11,295.599 L170.11,295.599 Z M177,298 L163,298 C162.448,298 162,297.552 162,297 L162,287 C162,286.448 162.448,286 163,286 L177,286 C177.552,286 178,286.448 178,287 L178,297 C178,297.552 177.552,298 177,298 L177,298 Z M168,282 L172,282 C172.552,282 173,282.448 173,283 L173,284 L167,284 L167,283 C167,282.448 167.448,282 168,282 L168,282 Z M179,284 L179,283 C179,282.448 178.552,282 178,282 C177.448,282 177,282.448 177,283 L177,284 L175,284 L175,282 C175,280.896 174.104,280 173,280 L167,280 C165.895,280 165,280.896 165,282 L165,284 L162,284 C160.895,284 160,284.896 160,286 L160,298 C160,299.105 160.895,300 162,300 L178,300 C179.104,300 180,299.105 180,298 L180,284 L179,284 Z" transform="translate(-160 -280)"/>
</svg>
