<svg xmlns="http://www.w3.org/2000/svg" width="18" height="20" viewBox="0 0 18 20">
  <path fill-rule="evenodd" d="M215,258.000218 C213.897,258.000218 213,257.103218 213,256.000218 C213,254.897218 213.897,254.000218 215,254.000218 C216.103,254.000218 217,254.897218 217,256.000218 C217,257.103218 216.103,258.000218 215,258.000218 M216,252.141218 L216,242.996218 L216.424,243.420218 C216.814,243.810218 217.448,243.810218 217.838,243.419218 L217.838,243.419218 C218.228,243.028218 218.228,242.395218 217.836,242.005218 L216.41,240.583218 C215.631,239.806218 214.369,239.806218 213.59,240.583218 L212.164,242.004218 C211.772,242.395218 211.772,243.028218 212.162,243.419218 C212.553,243.810218 213.186,243.810218 213.576,243.420218 L214,242.996218 L214,252.141218 C212,252.661218 210.588,254.684218 211.11,256.949218 C211.441,258.388218 212.608,259.557218 214.046,259.890218 C216.67,260.496218 219,258.520218 219,256.000218 C219,254.138218 218,252.587218 216,252.141218 M205,242.000218 C206.103,242.000218 207,242.897218 207,244.000218 C207,245.103218 206.103,246.000218 205,246.000218 C203.898,246.000218 203,245.103218 203,244.000218 C203,242.897218 203.898,242.000218 205,242.000218 M204,247.859218 L204,257.004218 L203.577,256.580218 C203.186,256.190218 202.553,256.190218 202.163,256.581218 L202.162,256.581218 C201.772,256.972218 201.773,257.605218 202.164,257.995218 L203.59,259.417218 C204.37,260.194218 205.631,260.194218 206.41,259.417218 L207.837,257.995218 C208.228,257.605218 208.229,256.972218 207.838,256.581218 C207.448,256.190218 206.815,256.190218 206.424,256.580218 L206,257.004218 L206,247.859218 C208,247.338218 209.412,245.316218 208.891,243.051218 C208.56,241.612218 207.393,240.443218 205.954,240.110218 C203.331,239.504218 201,241.480218 201,244.000218 C201,245.862218 202,247.413218 204,247.859218" transform="translate(-201 -240)"/>
</svg>
