<svg xmlns="http://www.w3.org/2000/svg" width="20" height="16" viewBox="0 0 20 16">
  <path fill-rule="evenodd" d="M51.9933186,215.348992 C51.4453186,215.814817 50.7413186,216.071721 50.0103186,216.071721 C49.2803186,216.071721 48.5743186,215.815817 48.0043186,215.334997 C44.4103186,212.307129 42.1223186,210.70073 42.0033186,207.405962 C41.8783186,203.919267 45.6983186,202.644743 48.0403186,205.509672 C48.5143186,206.088455 49.2263186,206.420331 49.9943186,206.420331 C50.7693186,206.420331 51.4863186,206.084457 51.9613186,205.498676 C54.2523186,202.67973 58.1743186,203.880281 57.9953186,207.507924 C57.8353186,210.734717 55.4593186,212.401094 51.9933186,215.348992 M50.3873186,204.31012 C50.2893186,204.431075 50.1413186,204.492052 49.9943186,204.492052 C49.8503186,204.492052 49.7073186,204.433074 49.6113186,204.316118 C46.0683186,199.982739 39.8123186,202.140932 40.0043186,207.472937 C40.1573186,211.71635 43.1653186,213.819564 46.7073186,216.803448 C47.6543186,217.601149 48.8323186,218 50.0103186,218 C51.1913186,218 52.3713186,217.59915 53.3163186,216.795451 C56.8193186,213.815565 59.7893186,211.726346 59.9923186,207.59889 C60.2623186,202.147929 53.9213186,199.958748 50.3873186,204.31012" transform="translate(-40 -202)"/>
</svg>
