<svg xmlns="http://www.w3.org/2000/svg" width="20" height="20" viewBox="0 0 20 20">
  <path fill-rule="evenodd" d="M127.25,290.125 C127.25,289.573 127.698,289.125 128.25,289.125 C128.802,289.125 129.25,289.573 129.25,290.125 C129.25,290.677 128.802,291.125 128.25,291.125 C127.698,291.125 127.25,290.677 127.25,290.125 L127.25,290.125 Z M126,298 L134,298 L134,282 L126,282 L126,298 Z M136,298 L136,280 L124,280 L124,298 L120,298 L120,300 L140,300 L140,298 L136,298 Z" transform="translate(-120 -280)"/>
</svg>
