<svg xmlns="http://www.w3.org/2000/svg" width="20" height="20" viewBox="0 0 20 20">
  <path fill-rule="evenodd" d="M378,455.00025 C378,454.44825 377.552,454.00025 377,454.00025 L363,454.00025 C362.448,454.00025 362,454.44825 362,455.00025 L362,457.00025 C362,457.55225 362.448,458.00025 363,458.00025 L377,458.00025 C377.552,458.00025 378,457.55225 378,457.00025 L378,455.00025 Z M380,454.00025 L380,458.00025 C380,459.10525 379.105,460.00025 378,460.00025 L362,460.00025 C360.896,460.00025 360,459.10525 360,458.00025 L360,454.00025 C360,452.89525 360.896,452.00025 362,452.00025 L378,452.00025 C379.105,452.00025 380,452.89525 380,454.00025 L380,454.00025 Z M365.28,445.35225 C364.907,444.97525 364.907,444.36225 365.28,443.98525 C365.791,443.46725 368.136,441.09025 368.653,440.56625 C369.397,439.81125 370.605,439.81125 371.349,440.56625 L374.724,443.98525 C375.096,444.36325 375.099,444.97525 374.727,445.35225 C374.354,445.73025 373.756,445.73025 373.384,445.35225 L371.791,443.72525 C371.49,443.42125 371,443.63625 371,444.06725 L371,449.03325 C371,449.56725 370.527,450.00025 370,450.00025 C369.473,450.00025 369,449.56725 369,449.03325 L369,444.06925 C369,443.63825 368.51,443.42325 368.209,443.72725 L366.629,445.35225 C366.256,445.73025 365.652,445.73025 365.28,445.35225 L365.28,445.35225 Z" transform="translate(-360 -440)"/>
</svg>
