<svg xmlns="http://www.w3.org/2000/svg" width="20" height="20" viewBox="0 0 20 20">
  <path fill-rule="evenodd" d="M82,58 L98,58 L98,50 L82,50 L82,58 Z M100,48 L100,50 L100,58 L100,60 L98,60 L82,60 L80,60 L80,58 L80,50 L80,48 L82,48 L89,48 L89,44 L89,42 L94,42 L94,40 L96,40 L96,42 L96,44 L91,44 L91,48 L98,48 L100,48 Z M94,55 L96,55 L96,53 L94,53 L94,55 Z M91,55 C91.552,55 92,54.552 92,54 C92,53.448 91.552,53 91,53 C90.448,53 90,53.448 90,54 C90,54.552 90.448,55 91,55 L91,55 Z M84,53 L85,53 L85,52 L87,52 L87,53 L88,53 L88,55 L87,55 L87,56 L85,56 L85,55 L84,55 L84,53 Z" transform="translate(-80 -40)"/>
</svg>
