<svg xmlns="http://www.w3.org/2000/svg" width="14" height="20" viewBox="0 0 14 20">
  <path fill-rule="evenodd" d="M172,167.219 C172,168.324 171.105,169.219 170,169.219 C168.895,169.219 168,168.324 168,167.219 C168,166.114 168.895,165.219 170,165.219 C171.105,165.219 172,166.114 172,167.219 M170,177 C170,177 165,170 165,167 C165,164.243 167.243,162 170,162 C172.757,162 175,164.243 175,167 C175,170 170,177 170,177 M170,160 C166.134,160 163,163.134 163,167 C163,170.866 170,180 170,180 C170,180 177,170.866 177,167 C177,163.134 173.866,160 170,160" transform="translate(-163 -160)"/>
</svg>
