<svg xmlns="http://www.w3.org/2000/svg" width="20" height="20" viewBox="0 0 20 20">
  <path fill-rule="evenodd" d="M140,0 L120,0 L120,17 L127.046,17 C127.847,18.504 128.39,20.001 130.079,20.001 C131.861,20.001 132.154,18.779 133.116,17 L140,17 L140,0 Z M138,2 L138,15 L132.064,15 C131.333,16.362 131.663,15.792 130.445,17.805 C130.337,17.967 130.187,18.032 130.079,18.032 C129.973,18.032 129.824,18.013 129.716,17.854 C129.16,17.04 129.479,17.583 128.109,15 L122,15 L122,2 L138,2 L138,2 Z" transform="translate(-120)"/>
</svg>
