<svg xmlns="http://www.w3.org/2000/svg" width="20" height="21" viewBox="0 0 20 21">
  <path fill-rule="evenodd" d="M370,90.049 C367.794,90.049 366,88.255 366,86.049 C366,83.843 367.794,82.049 370,82.049 C372.206,82.049 374,83.843 374,86.049 C374,88.255 372.206,90.049 370,90.049 M373.758,90.722 C375.124,89.623 376,87.939 376,86.049 C376,82.735 373.314,80.049 370,80.049 C366.686,80.049 364,82.735 364,86.049 C364,87.939 364.876,89.623 366.242,90.722 C362.583,92.097 360,95.494 360,100.049 L362,100.049 C362,95.049 365.589,92.049 370,92.049 C374.411,92.049 378,95.049 378,100.049 L380,100.049 C380,95.494 377.417,92.097 373.758,90.722" transform="translate(-360 -80)"/>
</svg>
