<svg xmlns="http://www.w3.org/2000/svg" width="20" height="20" viewBox="0 0 20 20">
  <path fill-rule="evenodd" d="M17.7001111,204 L14.3501111,204 C14.5861111,205.614 14.7931111,207.818 14.4451111,209.157 C14.6641111,209.175 14.8931111,209.19 15.1541111,209.19 C16.5281111,209.19 17.5281111,208.897 17.8761111,208.7 C18.1011111,208.017 18.0161111,206.048 17.7001111,204 L17.7001111,204 Z M16.0001111,211.155 C14.8681111,211.24 13.5941111,211.172 12.5451111,210.819 C10.9411111,211.299 8.69411111,211.329 7.17711111,210.818 C6.32211111,211.075 5.22311111,211.225 4.00011111,211.179 L4.00011111,220 L9.00011111,220 L9.00011111,216 L11.0001111,216 L11.0001111,220 L16.0001111,220 L16.0001111,211.155 Z M2.14111111,208.805 C2.40811111,208.954 3.18211111,209.19 4.41811111,209.19 C4.82911111,209.19 5.20211111,209.162 5.53911111,209.12 C5.23011111,207.756 5.40911111,205.59 5.61811111,204 L2.26011111,204 C1.97111111,206.105 1.90911111,208.125 2.14111111,208.805 L2.14111111,208.805 Z M7.51111111,208.805 C8.52811111,209.372 11.4871111,209.279 12.5101111,208.7 C12.7351111,208.017 12.6501111,206.048 12.3341111,204 L7.63011111,204 C7.34111111,206.105 7.27911111,208.125 7.51111111,208.805 L7.51111111,208.805 Z M19.3661111,210.067 C19.0641111,210.369 18.5801111,210.609 18.0001111,210.792 L18.0001111,222 L2.00011111,222 L2.00011111,210.881 C1.37011111,210.696 0.856111111,210.428 0.563111111,210.067 C-0.703888889,208.498 0.563111111,202 0.563111111,202 L19.3661111,202 C19.3661111,202 20.7921111,208.641 19.3661111,210.067 L19.3661111,210.067 Z M6.00011111,216 L8.00011111,216 L8.00011111,212 L6.00011111,212 L6.00011111,216 Z M12.0001111,216 L14.0001111,216 L14.0001111,212 L12.0001111,212 L12.0001111,216 Z" transform="translate(0 -202)"/>
</svg>
