<svg xmlns="http://www.w3.org/2000/svg" width="20" height="20" viewBox="0 0 20 20">
  <path fill-rule="evenodd" d="M95.037,170.4041 C94.041,171.4161 93.586,172.8721 93.822,174.3011 L94.259,176.9571 L91.969,175.7031 C91.365,175.3721 90.685,175.1971 90.003,175.1971 C89.32,175.1971 88.64,175.3721 88.036,175.7031 L85.746,176.9571 L86.184,174.3011 C86.419,172.8721 85.964,171.4161 84.968,170.4041 L83.116,168.5231 L85.676,168.1351 C87.053,167.9271 88.242,167.0271 88.858,165.7271 L90.003,163.3101 L91.148,165.7271 C91.763,167.0271 92.953,167.9271 94.329,168.1351 L96.89,168.5231 L95.037,170.4041 Z M99.454,169.4331 C100.528,168.3421 99.936,166.4411 98.451,166.2161 L94.677,165.6451 C94.087,165.5561 93.577,165.1701 93.314,164.6131 L91.626,161.0511 C91.294,160.3501 90.648,160.0001 90.003,160.0001 C89.357,160.0001 88.711,160.3501 88.379,161.0511 L86.692,164.6131 C86.428,165.1701 85.918,165.5561 85.329,165.6451 L81.555,166.2161 C80.07,166.4411 79.477,168.3421 80.551,169.4331 L83.282,172.2061 C83.709,172.6391 83.904,173.2631 83.803,173.8751 L83.158,177.7911 C82.957,179.0101 83.887,180.0001 84.942,180.0001 C85.22,180.0001 85.508,179.9311 85.785,179.7791 L89.16,177.9301 C89.424,177.7861 89.713,177.7131 90.003,177.7131 C90.292,177.7131 90.581,177.7861 90.845,177.9301 L94.221,179.7791 C94.498,179.9311 94.785,180.0001 95.063,180.0001 C96.118,180.0001 97.048,179.0101 96.847,177.7911 L96.203,173.8751 C96.102,173.2631 96.296,172.6391 96.723,172.2061 L99.454,169.4331 Z" transform="translate(-80 -160)"/>
</svg>
