<svg xmlns="http://www.w3.org/2000/svg" width="16" height="20" viewBox="0 0 16 20">
  <path fill-rule="evenodd" d="M4,249.958556 L4,243.091136 C4,242.541424 4.448,241.991711 5,241.991711 L15,241.991711 C15.552,241.991711 16,242.541424 16,243.091136 L16,249.958556 L4,249.958556 Z M13.984,253.057659 L13.984,253.041725 C13.984,252.495996 14.429,252.053836 14.977,252.053836 L14.992,252.053836 C15.54,252.053836 15.984,252.495996 15.984,253.041725 L15.984,253.057659 C15.984,253.603388 15.54,254.045548 14.992,254.045548 L14.977,254.045548 C14.429,254.045548 13.984,253.603388 13.984,253.057659 L13.984,253.057659 Z M5.008,254.045548 L4.992,254.045548 C4.444,254.045548 4,253.603388 4,253.057659 C4,252.51193 4.444,252.06977 4.992,252.06977 L5.008,252.06977 C5.556,252.06977 6,252.51193 6,253.057659 C6,253.603388 5.556,254.045548 5.008,254.045548 L5.008,254.045548 Z M4,240 C2.895,240 2,240.995856 2,242.09528 L2,250.062125 L2,254.045548 C2,255.145968 2.895,255.93369 4,255.93369 L6.356,255.93369 L5.313,258.535861 C5.068,259.036776 5,259.666157 6,259.901179 L6,259.914125 C6,260.144168 6.871,259.89122 7.11,259.403251 L8.582,255.93369 L11.452,255.93369 L13.459,259.422172 C13.702,259.902175 14,260.128234 15,259.901179 L15,259.914125 C15,259.677111 15.498,259.019847 15.243,258.517935 L13.692,255.93369 L16,255.93369 C17.105,255.93369 18,255.145968 18,254.045548 L18,250.062125 L18,242.09528 C18,240.995856 17.105,240 16,240 L4,240 Z" transform="translate(-2 -240)"/>
</svg>
