<svg xmlns="http://www.w3.org/2000/svg" width="16" height="20" viewBox="0 0 16 20">
  <path fill-rule="evenodd" d="M175,18 C174.449,18 174,17.551 174,17 C174,16.449 174.449,16 175,16 C175.551,16 176,16.449 176,17 C176,17.551 175.551,18 175,18 M166,18 C164.897,18 164,17.103 164,16 C164,14.897 164.897,14 166,14 C167.103,14 168,14.897 168,16 C168,17.103 167.103,18 166,18 M176,14.184 L176,11 L167,11 L167,9 L171,9 L171,7 L167,7 L167,0 L162,0 L162,2 L165,2 L165,12.141 C163,12.587 162,14.138 162,16 C162,18.209 163.791,20 166,20 C168.209,20 170,18.209 170,16 C170,14.798 169.459,13.733 168.62,13 L174,13 L174,14.184 C173,14.597 172,15.696 172,17 C172,18.657 173.343,20 175,20 C176.657,20 178,18.657 178,17 C178,15.696 177,14.597 176,14.184" transform="translate(-162)"/>
</svg>
